<?xml version="1.0" standalone="no"?>
<!DOCTYPE svg PUBLIC "-//W3C//DTD SVG 1.1//EN" "http://www.w3.org/Graphics/SVG/1.1/DTD/svg11.dtd" >
<svg xmlns="http://www.w3.org/2000/svg" xmlns:xlink="http://www.w3.org/1999/xlink" version="1.1">
<metadata>
Created by FontForge 20161003 at Sat Jan 21 03:13:22 2017
 By www-data
Copyright \(c\) 2016 by Deepak Singh Dogra. All rights reserved.
</metadata>
<defs>
<font id="Renogare" horiz-adv-x="713" >
  <font-face 
    font-family="Renogare"
    font-weight="400"
    font-stretch="normal"
    units-per-em="1000"
    panose-1="0 0 0 0 0 0 0 0 0 0"
    ascent="800"
    descent="-200"
    x-height="548"
    cap-height="731"
    bbox="-50 -307 1381 1017"
    underline-thickness="50"
    underline-position="-150"
    unicode-range="U+0020-2265"
  />
<missing-glyph horiz-adv-x="520" 
 />
    <glyph glyph-name=".notdef" horiz-adv-x="520" 
 />
    <glyph glyph-name=".null" horiz-adv-x="0" 
 />
    <glyph glyph-name="nonmarkingreturn" horiz-adv-x="356" 
 />
    <glyph glyph-name="space" unicode=" " horiz-adv-x="300" 
 />
    <glyph glyph-name="exclam" unicode="!" horiz-adv-x="305" 
d="M92 208l-26 522h169l-26 -522h-117zM208 15.5q-25 -23.5 -59 -23.5t-58 23.5t-24 56.5q0 32 24 56t58 24t59 -24t25 -56q0 -33 -25 -56.5z" />
    <glyph glyph-name="quotedbl" unicode="&#x22;" horiz-adv-x="462" 
d="M58 503l-17 229h153l-16 -229h-120zM274 503l-18 229h154l-18 -229h-118z" />
    <glyph glyph-name="numbersign" unicode="#" horiz-adv-x="890" 
d="M574 179l-73 -179h-157l74 179h-115l-72 -179h-157l73 179h-135l57 142h135l39 96h-134l57 142h135l70 173h156l-69 -173h113l72 173h156l-71 -173h138l-57 -142h-138l-39 -96h137l-58 -142h-137zM400 417l-38 -96h112l40 96h-114z" />
    <glyph glyph-name="dollar" unicode="$" horiz-adv-x="707" 
d="M417 821v-79q57 -8 104 -29t108 -63l-89 -121q-56 38 -106 56.5t-99 18.5q-44 0 -85.5 -18.5t-41.5 -53.5t64.5 -57.5t135.5 -32.5q70 -13 121.5 -32t91 -65t39.5 -127q0 -101 -65 -158.5t-178 -66.5v-80h-158v88q-61 10 -104.5 32.5t-114.5 70.5l86 124
q66 -44 125 -69.5t117 -25.5q41 0 71.5 12.5t46.5 32.5t16 41q0 34 -40.5 51t-121.5 32q-72 12 -132 31t-109 66t-49 127q0 96 58.5 147.5t150.5 66.5v81h158z" />
    <glyph glyph-name="percent" unicode="%" horiz-adv-x="998" 
d="M127 347.5q-45 26.5 -70.5 74t-25.5 106.5q0 60 25.5 107.5t70.5 74t102 26.5t102 -26.5t70.5 -74t25.5 -107.5q0 -58 -26 -105.5t-71 -74.5t-101 -27q-57 0 -102 26.5zM642 717h136l-442 -717h-137zM185 586q-11 -30 -11 -58q0 -26 11 -57t44 -31q27 0 41.5 28t14.5 60
t-14 60t-42 28q-33 0 -44 -30zM650.5 12q-45.5 27 -71 74.5t-25.5 107.5q0 59 25.5 106.5t71 74t102.5 26.5q56 0 101.5 -26.5t71 -74t25.5 -106.5t-26 -107t-71.5 -75t-100.5 -27q-57 0 -102.5 27zM708 252q-11 -30 -11 -58q0 -27 11 -58t45 -31q26 0 41 28t15 61
q0 31 -14 59.5t-42 28.5q-34 0 -45 -30z" />
    <glyph glyph-name="ampersand" unicode="&#x26;" horiz-adv-x="712" 
d="M469 76q-45 -37 -76.5 -55t-60 -24.5t-70.5 -8.5q-64 -2 -118 24t-86 74t-32 107q0 50 23 90.5t67 76.5q-1 -1 29 21l12 8t11 8q-57 71 -57 153q0 16 1 24q7 41 30 77t58 59q25 16 56 24.5t62 8.5q28 0 52 -6q43 -11 77.5 -39.5t53.5 -67.5q19 -37 19 -77q0 -46 -22 -87
q-15 -29 -42 -52t-67 -46l81 -80q28 39 46.5 73.5t18.5 38.5l137 -66q-24 -43 -45.5 -75.5t-53.5 -73.5l22 -22q71 -71 89 -91l-119 -89zM265.5 511.5q10.5 -24.5 28.5 -45.5q79 45 79 102q0 21 -17 34t-39 13q-21 0 -38 -14t-21 -42q-3 -23 7.5 -47.5zM210 267
q-10 -9 -20.5 -26t-10.5 -42q0 -9 1 -13q2 -26 25.5 -44t55.5 -18q36 0 61.5 13.5t50.5 35.5l-122 121q-20 -11 -41 -27z" />
    <glyph glyph-name="quotesingle" unicode="'" horiz-adv-x="239" 
d="M57 503l-19 229h155l-17 -229h-119z" />
    <glyph glyph-name="parenleft" unicode="(" horiz-adv-x="411" 
d="M229 475.5q-30 -81.5 -30 -178.5t30 -178t89 -141q29 -27 63 -50l-92 -117q-53 38 -85 72v-1q-164 164 -164 415q0 250 164 416v-1q37 38 85 71l92 -115q-48 -35 -63 -50v-1q-59 -60 -89 -141.5z" />
    <glyph glyph-name="parenright" unicode=")" horiz-adv-x="373" 
d="M0 668l92 115q48 -33 85 -71v1q163 -165 163 -416q0 -252 -163 -415v1q-32 -34 -85 -72l-92 117q36 24 62 50q59 60 89.5 141t30.5 178t-30.5 178.5t-89.5 141.5v1q-14 15 -62 50z" />
    <glyph glyph-name="asterisk" unicode="*" horiz-adv-x="452" 
d="M158 369l-96 60l73 89l-111 37l34 99l109 -37v112h111v-112l108 37l34 -99l-110 -37l68 -89l-91 -60l-64 88z" />
    <glyph glyph-name="plus" unicode="+" horiz-adv-x="590" 
d="M365 228v-183h-148v183h-186v136h186v183h148v-183h187v-136h-187z" />
    <glyph glyph-name="comma" unicode="," horiz-adv-x="218" 
d="M189 49q0 -56 -38 -104t-103 -62l-23 50q28 9 46 24.5t24 34.5q-33 1 -54 24t-21 55q0 33 23.5 57t57.5 24q30 0 53 -18t30 -48q5 -20 5 -37z" />
    <glyph glyph-name="hyphen" unicode="-" horiz-adv-x="425" 
d="M48 220v136h318v-136h-318z" />
    <glyph glyph-name="period" unicode="." horiz-adv-x="214" 
d="M164.5 15.5q-24.5 -23.5 -58.5 -23.5t-58 23.5t-24 56.5q0 32 24 56t58 24t58.5 -24t24.5 -56q0 -33 -24.5 -56.5z" />
    <glyph glyph-name="slash" unicode="/" horiz-adv-x="564" 
d="M425 831h149l-460 -966h-148z" />
    <glyph glyph-name="zero" unicode="0" horiz-adv-x="777" 
d="M242 15.5q-65 30.5 -112 86.5q-42 51 -65 119t-23 144q0 110 43 196t120.5 134t177.5 48q97 0 174.5 -48.5t121.5 -135t44 -194.5q0 -74 -23.5 -142.5t-67.5 -120.5q-46 -55 -112 -86t-137 -31q-76 0 -141 30.5zM298 573.5q-41 -25.5 -68 -78.5t-27 -130q0 -59 20 -113
t60.5 -88.5t99.5 -34.5q45 0 86 28t67 81.5t26 126.5q0 50 -13.5 98t-37.5 77q-50 59 -128 59q-44 0 -85 -25.5z" />
    <glyph glyph-name="one" unicode="1" horiz-adv-x="462" 
d="M382 0h-159v469l-100 -92l-109 113l265 242h103v-732z" />
    <glyph glyph-name="two" unicode="2" horiz-adv-x="668" 
d="M599 0h-530v147l114 93l153 123q60 47 78 79t18 70q0 49 -32 71t-76 22q-54 0 -80 -39.5t-37 -75.5l-154 38q13 45 46 94.5t90.5 85t134.5 35.5q86 0 146.5 -33.5t90.5 -86.5t30 -111q0 -73 -43 -135.5t-118 -125.5l-41 -33q-18 -14 -44 -34.5t-60 -46.5h314v-137z" />
    <glyph glyph-name="three" unicode="3" horiz-adv-x="624" 
d="M541.5 427.5q-29.5 -36.5 -78.5 -58.5q108 -46 108 -168q0 -28 -10 -62.5t-36 -66.5q-40 -48 -99.5 -67t-121.5 -19q-119 0 -182.5 66t-86.5 145l142 43q11 -36 39.5 -77t87.5 -41q52 0 80 22.5t28 56.5q0 45 -20.5 68t-59.5 31t-107 7v126q69 3 107 10t59 27.5t21 61.5
q0 34 -28 56t-80 22q-64 0 -91.5 -39.5t-35.5 -77.5l-142 44q23 78 86.5 144t182.5 66q92 0 152 -31.5t87.5 -80.5t27.5 -103q0 -68 -29.5 -104.5z" />
    <glyph glyph-name="four" unicode="4" horiz-adv-x="699" 
d="M656 158h-91v-158h-158v158h-357v128l396 446h119v-437h91v-137zM256 295h151v177z" />
    <glyph glyph-name="five" unicode="5" horiz-adv-x="641" 
d="M516.5 425.5q70.5 -68.5 70.5 -189.5q0 -73 -36 -130t-99.5 -88.5t-142.5 -31.5q-99 0 -164.5 34.5t-113.5 91.5l98 117q0 -4 24.5 -31t65 -50t92.5 -23q47 0 81 29t36 82q3 62 -28.5 98t-90.5 36q-51 0 -83 -17.5t-59 -45.5l-118 62l71 363h420v-138h-291l-23 -127
q47 27 95 27q125 0 195.5 -68.5z" />
    <glyph glyph-name="six" unicode="6" horiz-adv-x="675" 
d="M491 474.5q60 -30.5 93 -89.5t33 -140q0 -63 -20.5 -108t-49.5 -73q-46 -45 -105 -61.5t-114 -16.5q-88 0 -152 38t-97.5 101.5t-33.5 138.5q0 73 30 136q29 62 233 332h196q-64 -83 -175 -233q18 3 23 3q79 3 139 -27.5zM240.5 156q37.5 -36 91.5 -36q55 0 92.5 36
t37.5 88q0 53 -37.5 89t-92.5 36q-54 0 -91.5 -36.5t-37.5 -88.5t37.5 -88z" />
    <glyph glyph-name="seven" unicode="7" horiz-adv-x="616" 
d="M578 588l-344 -588h-182l356 594h-379v138h549v-144z" />
    <glyph glyph-name="eight" unicode="8" horiz-adv-x="646" 
d="M548 446q-23 -40 -60 -59q46 -19 78.5 -66t32.5 -100q0 -77 -37.5 -130t-101 -79t-143.5 -26t-143.5 26t-101 79t-37.5 130q0 55 34 102.5t81 64.5q-35 21 -61 61.5t-26 83.5q0 59 34 107t92.5 75t127.5 27t127.5 -27t92.5 -75t34 -107q0 -47 -23 -87zM249.5 461
q26.5 -20 67.5 -20q40 0 67 20t27 57q0 45 -26 65.5t-68 20.5t-68 -21t-26 -65q0 -37 26.5 -57zM406 147.5q34 23.5 34 73.5q0 45 -35.5 72t-87.5 27t-87.5 -26.5t-35.5 -72.5q0 -49 34.5 -73t88.5 -24q55 0 89 23.5z" />
    <glyph glyph-name="nine" unicode="9" horiz-adv-x="683" 
d="M182.5 262q-60.5 35 -94 95.5t-33.5 129.5q0 112 70 182q46 44 104.5 60.5t113.5 16.5q95 0 168.5 -47.5t98.5 -125.5v1q19 -51 19 -106q0 -64 -32 -136q-17 -35 -87 -133.5t-146 -198.5h-196l174 233q-10 -3 -22 -3q-77 -3 -137.5 32zM248.5 401q37.5 -36 91.5 -36
q55 0 92 35.5t37 88.5q0 52 -37 88t-92 36q-54 0 -91.5 -36t-37.5 -88t37.5 -88z" />
    <glyph glyph-name="colon" unicode=":" horiz-adv-x="214" 
d="M163.5 292.5q-24.5 -23.5 -58.5 -23.5t-58 23.5t-24 55.5q0 33 24 56.5t58 23.5t58.5 -23.5t24.5 -56.5q0 -32 -24.5 -55.5zM163.5 15.5q-24.5 -23.5 -58.5 -23.5t-58 23.5t-24 56.5t24 56.5t58 23.5t58.5 -24t24.5 -56q0 -33 -24.5 -56.5z" />
    <glyph glyph-name="semicolon" unicode=";" horiz-adv-x="222" 
d="M164.5 292.5q-24.5 -23.5 -58.5 -23.5t-58 23.5t-24 55.5q0 33 24 56.5t58 23.5t58.5 -23.5t24.5 -56.5q0 -32 -24.5 -55.5zM189 49q0 -56 -38 -104t-103 -62l-23 50q28 9 46 24.5t24 34.5q-33 1 -54 24t-21 55q0 33 23.5 57t57.5 24q30 0 53 -18t30 -48q5 -20 5 -37z
" />
    <glyph glyph-name="less" unicode="&#x3c;" horiz-adv-x="575" 
d="M518 417l-295 -123l295 -122v-156l-469 211v135l469 211v-156z" />
    <glyph glyph-name="equal" unicode="=" horiz-adv-x="584" 
d="M47 335v136h479v-136h-479zM47 99v136h479v-136h-479z" />
    <glyph glyph-name="greater" unicode="&#x3e;" horiz-adv-x="575" 
d="M518 227l-469 -211v156l295 122l-295 123v156l469 -211v-135z" />
    <glyph glyph-name="question" unicode="?" horiz-adv-x="601" 
d="M531.5 610.5q15.5 -35.5 15.5 -73.5q0 -58 -22.5 -97t-52.5 -61t-74 -44q-43 -23 -59.5 -50t-16.5 -78h-155q0 79 40.5 146t113.5 105q40 20 53.5 34.5t13.5 42.5q0 22 -21 43.5t-86 21.5q-57 0 -93 -32t-50 -75l-145 46q23 71 90 141t198 70q75 0 127 -22t81 -53
q27 -29 42.5 -64.5zM305 128q-25 24 -59 24t-58 -24t-24 -56q0 -33 24 -56.5t58 -23.5t59 23.5t25 56.5q0 32 -25 56z" />
    <glyph glyph-name="at" unicode="@" horiz-adv-x="881" 
d="M833 314q0 -170 -84 -230q-37 -27 -85 -27q-26 0 -42 5q-19 4 -37.5 16.5t-32.5 27.5q-51 -46 -133 -46q-95 0 -149.5 56.5t-54.5 154.5q0 62 25.5 109.5t72 73.5t107.5 26q50 0 88 -20v16h118v-251q0 -20 6.5 -38t20.5 -23q30 -5 45.5 34t15.5 116q0 120 -68 173
q-73 59 -214 59q-90 0 -151.5 -38t-91.5 -99.5t-30 -129.5q0 -116 59 -199t207 -83q55 0 93.5 9t58.5 19.5t23 14.5l75 -65q-77 -79 -248 -79q-122 0 -209 45.5t-132 131.5t-45 206q0 74 26 141t74 119q54 56 128.5 85.5t162.5 29.5q186 0 290 -84q111 -91 111 -256z
M508 297q-2 35 -19.5 58t-68.5 23q-44 0 -62.5 -33t-18.5 -74q0 -57 24 -81.5t56 -24.5q38 0 63 20.5t26 65.5v46z" />
    <glyph glyph-name="A" unicode="A" horiz-adv-x="805" 
d="M398 754l401 -754h-173l-58 112h-341l-56 -112h-174zM492 247l-94 191l-93 -191h187z" />
    <glyph glyph-name="B" unicode="B" horiz-adv-x="703" 
d="M593.5 439q-25.5 -40 -66.5 -57q50 -17 86 -65t36 -105q0 -113 -72 -162.5t-184 -49.5h-316v731h304q238 0 238 -203q0 -49 -25.5 -89zM384 441q39 0 57.5 24t18.5 57q0 29 -22 50.5t-53 21.5h-149v-153h148zM465 161q26 24 26 59t-26 59t-75 24h-154v-166h157
q46 0 72 24z" />
    <glyph glyph-name="C" unicode="C" horiz-adv-x="809" 
d="M632.5 41q-92.5 -55 -201.5 -55q-107 0 -197.5 51t-143.5 138t-53 190q0 102 53 189t143.5 138t197.5 51q108 0 201 -54.5t146 -145.5l-147 -57q-35 50 -88.5 82t-111.5 32q-64 0 -118 -32.5t-85.5 -86.5t-31.5 -116t31.5 -116.5t85.5 -87t118 -32.5q58 0 111.5 32.5
t88.5 83.5l147 -57q-53 -92 -145.5 -147z" />
    <glyph glyph-name="D" unicode="D" horiz-adv-x="817" 
d="M78 731h302q163 0 267 -92q56 -49 85 -118.5t29 -154.5q0 -83 -30 -154.5t-84 -120.5q-50 -44 -118.5 -67.5t-148.5 -23.5h-302v731zM380 137q94 0 157.5 49t63.5 179t-64 179t-157 49h-144v-456h144z" />
    <glyph glyph-name="E" unicode="E" horiz-adv-x="700" 
d="M235 431h350v-138h-350v-156h396v-137h-554v731h554v-137h-396v-163z" />
    <glyph glyph-name="F" unicode="F" horiz-adv-x="668" 
d="M236 433h349v-137h-349v-296h-159v731h554v-137h-395v-161z" />
    <glyph glyph-name="G" unicode="G" horiz-adv-x="861" 
d="M815 348q0 -12 -2 -42q-8 -92 -61.5 -165t-138 -114t-182.5 -41q-107 0 -197.5 51t-143.5 138t-53 190q0 102 53 189.5t143.5 138.5t197.5 51q101 0 188.5 -47.5t142.5 -128.5l-136 -79q-36 49 -87 80t-108 31q-64 0 -118.5 -32.5t-86.5 -86.5t-32 -116t32 -116.5
t86.5 -87t118.5 -32.5q46 0 91 18.5t78 50.5t44 70h-273v139h442q2 -40 2 -59z" />
    <glyph glyph-name="H" unicode="H" horiz-adv-x="822" 
d="M735 0h-157v284h-343v-284h-157v731h157v-310h343v310h157v-731z" />
    <glyph glyph-name="I" unicode="I" horiz-adv-x="354" 
d="M96 0v731h158v-731h-158z" />
    <glyph glyph-name="J" unicode="J" horiz-adv-x="633" 
d="M552 262q0 -85 -35.5 -147t-99.5 -95.5t-149 -33.5q-88 0 -155 42t-102 118l144 61q16 -34 43.5 -57.5t69.5 -23.5q73 0 99 41t26 95v468h159v-468z" />
    <glyph glyph-name="K" unicode="K" horiz-adv-x="751" 
d="M236 0h-158v731h158v-305l285 305h196l-301 -310l314 -421h-194l-229 311l-71 -74v-237z" />
    <glyph glyph-name="L" unicode="L" horiz-adv-x="638" 
d="M619 0h-542v731h159v-594h383v-137z" />
    <glyph glyph-name="M" unicode="M" horiz-adv-x="934" 
d="M844 0h-159v349l-224 -260l-224 260v-349h-159v754l383 -432l383 432v-754z" />
    <glyph glyph-name="N" unicode="N" horiz-adv-x="828" 
d="M235 0h-157v754l504 -446v422h158v-753l-505 439v-416z" />
    <glyph glyph-name="O" unicode="O" horiz-adv-x="880" 
d="M237 37q-90 51 -143 138.5t-53 190.5q0 102 53 189.5t143 138.5t197 51t198 -51t144 -138.5t53 -189.5q0 -103 -53 -190.5t-144 -138.5t-198 -51t-197 51zM316 568.5q-54 -32.5 -86 -86.5t-32 -116t32 -116.5t86 -87.5t118 -33t118.5 33t86 87.5t31.5 116.5t-31.5 116
t-86 86.5t-118.5 32.5t-118 -32.5z" />
    <glyph glyph-name="P" unicode="P" horiz-adv-x="686" 
d="M531.5 696q66.5 -35 102.5 -94.5t36 -132.5t-33.5 -131t-100.5 -91.5t-162 -33.5h-138v-213h-158v731h297q90 0 156.5 -35zM482 385q29 35 29 84q0 32 -15 60.5t-44.5 46.5t-70.5 18h-145v-244h161q56 0 85 35z" />
    <glyph glyph-name="Q" unicode="Q" horiz-adv-x="880" 
d="M237 37q-90 51 -143 138.5t-53 190.5q0 102 53 189.5t143 138.5t197 51t198 -51t144 -138.5t53 -189.5q0 -68 -23.5 -129.5t-66.5 -112.5l65 -67l-112 -108l-77 79q-86 -42 -181 -42q-107 0 -197 51zM568 301l62 -65q40 61 40 130q0 62 -31.5 116t-86 86.5t-118.5 32.5
t-118 -32.5t-86 -86.5t-32 -116t32 -116.5t86 -87.5t118 -33q36 0 72 11l-50 53z" />
    <glyph glyph-name="R" unicode="R" horiz-adv-x="729" 
d="M78 0v731h325q78 0 138 -32t93 -90t33 -132q0 -79 -40 -141t-109 -91q71 -90 189 -245h-189q-64 80 -175 228h-108v-228h-157zM403 365q41 0 74 29.5t33 82.5q0 43 -23 80t-84 37h-168v-229h168z" />
    <glyph glyph-name="S" unicode="S" horiz-adv-x="707" 
d="M243 156.5q71 -28.5 130 -28.5q62 0 98.5 24t36.5 57q0 27 -21.5 44t-54.5 25.5t-87 18.5q-72 12 -132 31t-109 66t-49 127q0 118 86.5 169.5t203.5 51.5q90 0 156.5 -24.5t132.5 -73.5l-88 -120q-49 35 -102 55t-105 20q-46 0 -86 -16.5t-40 -55.5q0 -24 20.5 -38.5
t45 -21t79.5 -18.5l36 -7q83 -16 137.5 -35.5t94.5 -65.5t40 -128q0 -111 -78.5 -169t-212.5 -58q-196 0 -330 114l84 121q43 -36 114 -64.5z" />
    <glyph glyph-name="T" unicode="T" horiz-adv-x="647" 
d="M416 594v-594h-159v594h-213v137h584v-137h-212z" />
    <glyph glyph-name="U" unicode="U" horiz-adv-x="820" 
d="M233 25q-74 38 -114.5 108t-40.5 163v434h158v-434q0 -64 27.5 -102.5t66 -54.5t76.5 -16q37 0 75.5 16t65.5 54.5t27 102.5v434h158v-434q0 -93 -40 -163t-114 -108t-172 -38q-99 0 -173 38z" />
    <glyph glyph-name="V" unicode="V" horiz-adv-x="750" 
d="M374 -18l-369 748h174l195 -404l196 404h175z" />
    <glyph glyph-name="W" unicode="W" horiz-adv-x="1031" 
d="M719 -27l-209 434l-211 -434l-292 757h170l141 -379l192 398l192 -398l144 379h168z" />
    <glyph glyph-name="X" unicode="X" horiz-adv-x="784" 
d="M6 730h199l189 -252l189 252h197l-287 -368l282 -362h-198l-183 243l-183 -243h-199l283 362z" />
    <glyph glyph-name="Y" unicode="Y" horiz-adv-x="734" 
d="M444 277v-277h-158v277l-288 453h185l182 -295l184 295h185z" />
    <glyph glyph-name="Z" unicode="Z" horiz-adv-x="730" 
d="M684 137v-137h-685l430 593h-380v137h670l-431 -593h396z" />
    <glyph glyph-name="bracketleft" unicode="[" horiz-adv-x="392" 
d="M78 -223v1049h291v-138h-133v-773h133v-138h-291z" />
    <glyph glyph-name="backslash" unicode="\" horiz-adv-x="513" 
d="M105 831l372 -966h-154l-372 966h154z" />
    <glyph glyph-name="bracketright" unicode="]" horiz-adv-x="349" 
d="M5 -95h133v773h-133v138h291v-1049h-291v138z" />
    <glyph glyph-name="asciicircum" unicode="^" horiz-adv-x="629" 
d="M307 588l-109 -223h-162l191 372h159l191 -372h-163z" />
    <glyph glyph-name="underscore" unicode="_" horiz-adv-x="695" 
d="M50 -120v136h579v-136h-579z" />
    <glyph glyph-name="grave" unicode="`" horiz-adv-x="295" 
d="M159 588l-150 108l136 56l132 -164h-118z" />
    <glyph glyph-name="a" unicode="a" 
d="M486 55q-19 -26 -65.5 -46.5t-101.5 -20.5q-85 0 -147.5 38t-95.5 103.5t-33 145.5t33 145.5t95.5 103.5t147.5 38q57 0 100.5 -19.5t66.5 -49.5v57h148v-550h-148v55zM451 387.5q-41 43.5 -110 43.5q-70 0 -110.5 -43.5t-40.5 -112.5q0 -67 41.5 -111t109.5 -44
q70 0 110.5 41.5t40.5 113.5q0 69 -41 112.5z" />
    <glyph glyph-name="b" unicode="b" 
d="M69 0v756h148v-263q23 30 66.5 49.5t100.5 19.5q85 0 147.5 -38t95.5 -103.5t33 -145.5t-33 -145.5t-95.5 -103.5t-147.5 -38q-55 0 -101.5 20.5t-65.5 46.5v-55h-148zM251.5 161.5q40.5 -41.5 110.5 -41.5q68 0 109.5 44t41.5 111q0 69 -40.5 112.5t-110.5 43.5
q-69 0 -110 -43.5t-41 -112.5q0 -72 40.5 -113.5z" />
    <glyph glyph-name="c" unicode="c" horiz-adv-x="650" 
d="M193 24.5q-69 38.5 -109.5 104.5t-40.5 144t40.5 143.5t109 104t149.5 38.5q87 0 157.5 -41.5t112.5 -118.5l-135 -53q-24 41 -59 61.5t-76 20.5q-65 0 -107.5 -44t-42.5 -111t43 -111t108 -44q90 0 139 80l127 -50q-79 -162 -266 -162q-81 0 -150 38.5z" />
    <glyph glyph-name="d" unicode="d" 
d="M486 55q-19 -26 -65.5 -46.5t-101.5 -20.5q-85 0 -147.5 38t-95.5 103.5t-33 145.5t33 145.5t95.5 103.5t147.5 38q57 0 100.5 -19.5t66.5 -49.5v263h148v-756h-148v55zM451 387.5q-41 43.5 -110 43.5q-70 0 -110.5 -43.5t-40.5 -112.5q0 -67 41.5 -111t109.5 -44
q70 0 110.5 41.5t40.5 113.5q0 69 -41 112.5z" />
    <glyph glyph-name="e" unicode="e" horiz-adv-x="681" 
d="M209.5 13q-68.5 27 -117.5 91.5t-49 168.5t49.5 168t118.5 91t131 27q72 0 137 -32t106.5 -94t43.5 -147q0 -26 -1 -45t-2 -24h-434q12 -58 60 -79t90 -21q54 0 86 19.5t55 44.5l116 -67q-94 -128 -257 -128q-64 0 -132.5 27zM240 397.5q-39 -30.5 -44 -74.5h275
q-3 26 -20 50t-45.5 39.5t-64.5 15.5q-62 0 -101 -30.5z" />
    <glyph glyph-name="f" unicode="f" horiz-adv-x="390" 
d="M244 0h-150v413h-62v128h62q4 107 61 163t158 56q30 0 66 -9l-8 -121q-19 6 -41 6q-54 0 -70 -27t-16 -68h99v-128h-99v-413z" />
    <glyph glyph-name="g" unicode="g" 
d="M560.5 -138.5q-73.5 -68.5 -204.5 -68.5q-157 0 -263 83l73 106q34 -27 80.5 -44t98.5 -17q141 0 141 128v9q-60 -49 -154 -49q-87 0 -153 36.5t-101 99.5t-35 139q0 77 35 139.5t100.5 99.5t153.5 37q94 0 154 -49v39h148v-501q0 -119 -73.5 -187.5zM417.5 154.5
q34.5 19.5 54.5 54t20 75.5q0 42 -20 76t-54.5 53.5t-76.5 19.5q-68 0 -109.5 -42.5t-41.5 -106.5q0 -66 40.5 -107.5t110.5 -41.5q42 0 76.5 19.5z" />
    <glyph glyph-name="h" unicode="h" horiz-adv-x="660" 
d="M531.5 499q51.5 -61 51.5 -174v-325h-152v325q0 59 -29.5 85t-77.5 26q-41 0 -74 -32.5t-31 -112.5v-291h-149v757h149v-256q27 27 68 43t79 16q114 0 165.5 -61z" />
    <glyph glyph-name="i" unicode="i" horiz-adv-x="305" 
d="M209 631.5q-24 -23.5 -58 -23.5q-35 0 -59.5 23.5t-24.5 57.5q0 33 24.5 56.5t59.5 23.5q34 0 58 -23.5t24 -56.5q0 -34 -24 -57.5zM76 549h150v-549h-150v549z" />
    <glyph glyph-name="j" unicode="j" horiz-adv-x="319" 
d="M221.5 631.5q-24.5 -23.5 -58.5 -23.5t-59 24t-25 57t25 56.5t59 23.5t58.5 -23.5t24.5 -56.5q0 -34 -24.5 -57.5zM239 5q0 -114 -55 -161.5t-163 -47.5q-26 0 -66 10l8 127q28 -10 56 -10q32 0 47.5 12t19 28.5t3.5 41.5v544h150v-544z" />
    <glyph glyph-name="k" unicode="k" horiz-adv-x="619" 
d="M220 756v-440l187 231h183l-221 -256l230 -291h-181l-144 180l-54 -62v-118h-150v756h150z" />
    <glyph glyph-name="l" unicode="l" horiz-adv-x="294" 
d="M70 756h150v-756h-150v756z" />
    <glyph glyph-name="m" unicode="m" horiz-adv-x="1032" 
d="M889.5 498q56.5 -62 56.5 -173v-325h-151v325q0 59 -29.5 85t-77.5 26q-40 0 -72 -30t-33 -100v-306h-151v325q0 59 -29.5 85t-76.5 26q-43 0 -74.5 -32t-31.5 -113l-1 -291h-149v550h149v-50q29 26 70 43t75 17q116 0 177 -75q31 35 77 55t100 20q115 0 171.5 -62z" />
    <glyph glyph-name="n" unicode="n" horiz-adv-x="658" 
d="M529.5 499q51.5 -61 51.5 -174v-325h-153v325q0 111 -106 111q-41 0 -74 -32.5t-31 -112.5v-291h-149v550h149v-49q27 27 68 43t79 16q114 0 165.5 -61z" />
    <glyph glyph-name="o" unicode="o" horiz-adv-x="694" 
d="M191.5 25.5q-68.5 38.5 -108.5 104.5t-40 144q0 77 40 143t108.5 104.5t149.5 38.5t150 -38.5t109.5 -104.5t40.5 -143q0 -78 -40.5 -144t-109.5 -104.5t-150 -38.5t-149.5 38.5zM265 408.5q-35 -20.5 -55 -56t-20 -78.5q0 -45 19.5 -80.5t54 -56t77.5 -20.5
q42 0 76.5 20.5t54.5 56.5t20 80q0 43 -20 78.5t-54.5 56t-76.5 20.5q-41 0 -76 -20.5z" />
    <glyph glyph-name="p" unicode="p" 
d="M217 495q19 26 65.5 46.5t101.5 20.5q85 0 147.5 -38t95.5 -103.5t33 -145.5t-33 -145.5t-95.5 -103.5t-147.5 -38q-57 0 -100.5 19.5t-66.5 49.5v-234h-148v727h148v-55zM252 162.5q41 -43.5 110 -43.5q70 0 110.5 43.5t40.5 112.5q0 67 -41.5 111t-109.5 44
q-70 0 -110.5 -41.5t-40.5 -113.5q0 -69 41 -112.5z" />
    <glyph glyph-name="q" unicode="q" 
d="M634 550v-727h-148v234q-23 -30 -66.5 -49.5t-100.5 -19.5q-85 0 -147.5 38t-95.5 103.5t-33 145.5t33 145.5t95.5 103.5t147.5 38q55 0 101.5 -20.5t65.5 -46.5v55h148zM451.5 388.5q-40.5 41.5 -110.5 41.5q-68 0 -109.5 -44t-41.5 -111q0 -69 40.5 -112.5t110.5 -43.5
q69 0 110 43.5t41 112.5q0 72 -40.5 113.5z" />
    <glyph glyph-name="r" unicode="r" horiz-adv-x="424" 
d="M331 406.5q-43 -10.5 -79 -49.5t-36 -114v-243h-149v550h149v-73q37 49 90.5 66.5t97.5 16.5v-146q-30 3 -73 -7.5z" />
    <glyph glyph-name="s" unicode="s" horiz-adv-x="572" 
d="M38 73l78 104q36 -25 84 -42t94 -17q34 0 56.5 14t22.5 35t-25.5 29.5t-49.5 12t-31 4.5q-60 10 -103.5 24t-79 50t-35.5 99q0 104 75.5 139t151.5 35q65 0 120 -19t109 -60l-78 -102q-39 23 -77 37t-79 14q-25 0 -48.5 -11t-23.5 -30q0 -24 32.5 -34t71.5 -15
q70 -12 112 -25t74.5 -48.5t32.5 -100.5q0 -86 -59 -132.5t-167 -46.5q-150 0 -258 86z" />
    <glyph glyph-name="t" unicode="t" horiz-adv-x="410" 
d="M254 196q0 -35 12 -58.5t56 -23.5q20 0 38 2v-126q-36 -4 -67 -4q-64 0 -103.5 10.5t-61.5 40.5t-22 86v305h-67v131h67v147h148v-147h110v-131h-110v-232z" />
    <glyph glyph-name="u" unicode="u" horiz-adv-x="658" 
d="M68 223v325h151v-325q0 -59 29.5 -84.5t77.5 -25.5q42 0 75 32.5t30 111.5v291h150v-548h-150v47q-27 -28 -65.5 -43.5t-81.5 -15.5q-216 0 -216 235z" />
    <glyph glyph-name="v" unicode="v" horiz-adv-x="597" 
d="M-1 548h166l128 -269l128 269h167l-295 -572z" />
    <glyph glyph-name="w" unicode="w" horiz-adv-x="792" 
d="M5 548h159l92 -244l133 274l135 -275l95 245h158l-236 -571l-152 292l-150 -292z" />
    <glyph glyph-name="x" unicode="x" horiz-adv-x="626" 
d="M308 163l-115 -163h-187l207 272l-210 276h186l119 -169l117 169h188l-213 -276l208 -272h-188z" />
    <glyph glyph-name="y" unicode="y" horiz-adv-x="643" 
d="M150 -206l95 226l-236 528h173l139 -350l128 350h173l-307 -754h-165z" />
    <glyph glyph-name="z" unicode="z" horiz-adv-x="566" 
d="M36 419v129h523l-300 -418h269v-130h-533l299 419h-258z" />
    <glyph glyph-name="braceleft" unicode="{" horiz-adv-x="428" 
d="M252 55q0 -32 4.5 -54t17.5 -42q16 -24 45 -36t57 -15t28 -2v-141q-21 0 -62 6.5t-93 28.5t-90 64q-29 35 -42 79.5t-15.5 79.5t-2.5 83q0 44 -3.5 67.5t-16.5 38t-41 17.5v146q30 3 43 19t15.5 40.5t2.5 77.5q0 67 10.5 124.5t49.5 103.5q38 42 90 64t93 28.5t62 6.5
v-141q0 1 -28 -2t-57 -15t-45 -36q-13 -20 -17.5 -42t-4.5 -54q0 -17 2 -83q0 -62 -28.5 -104t-69.5 -60q41 -18 69.5 -59.5t28.5 -104.5q-2 -66 -2 -83z" />
    <glyph glyph-name="bar" unicode="|" horiz-adv-x="297" 
d="M87 -104v937h119v-937h-119z" />
    <glyph glyph-name="braceright" unicode="}" horiz-adv-x="428" 
d="M199.5 242.5q28.5 41.5 69.5 59.5q-41 18 -69.5 60t-28.5 104q2 66 2 83q0 32 -4.5 54t-17.5 42q-16 24 -45 36t-57 15t-28 2v141q21 0 62 -6.5t93 -28.5t90 -64q29 -35 42 -79.5t15.5 -79.5t2.5 -83q0 -44 3.5 -67.5t16.5 -38t41 -17.5v-146q-30 -3 -43 -18.5t-16 -40
t-2 -73.5q0 -69 -10 -127.5t-50 -105.5q-38 -42 -90 -64t-93 -28.5t-62 -6.5v141q0 -1 28 2t57 15t45 36q13 20 17.5 42t4.5 54q0 17 -2 83q0 63 28.5 104.5z" />
    <glyph glyph-name="asciitilde" unicode="~" horiz-adv-x="597" 
d="M325.5 328q-22.5 9 -53.5 26q-25 15 -43 22t-39 7t-34 -17.5t-19 -32.5l-100 31q15 45 54 83.5t100 38.5q28 0 49 -9t46 -25q24 -16 42 -23.5t40 -7.5q26 0 45.5 18.5t27.5 42.5l103 -32q-17 -48 -59 -89.5t-106 -41.5q-31 0 -53.5 9z" />
    <glyph glyph-name="exclamdown" unicode="&#xa1;" horiz-adv-x="305" 
d="M92.5 714.5q24.5 23.5 58.5 23.5t58.5 -23.5t24.5 -56.5q0 -32 -24.5 -55.5t-58.5 -23.5t-58.5 23.5t-24.5 55.5q0 33 24.5 56.5zM209 522l26 -522h-169l26 522h117z" />
    <glyph glyph-name="cent" unicode="&#xa2;" horiz-adv-x="644" 
d="M402.5 210.5q23.5 10.5 39 25.5t36.5 41l143 -55q-34 -57 -85.5 -96t-114.5 -55v-83h-158v86q-65 18 -117 60.5t-82 102.5t-30 127t30 126.5t82 102t117 60.5v91h158v-88q64 -15 116.5 -55.5t86.5 -99.5l-144 -56q-28 38 -59 60t-75 22t-80.5 -20.5t-57.5 -57.5t-21 -85
q0 -47 21 -84.5t57.5 -58.5t80.5 -21q33 0 56.5 10.5z" />
    <glyph glyph-name="sterling" unicode="&#xa3;" horiz-adv-x="640" 
d="M284 271q0 -98 -40 -136h348v-135h-543v130q17 2 36.5 18t33.5 41.5t14 53.5q0 43 -4 60h-78v123h59l-8 63q-1 8 -1 23q0 68 34 120.5t93 81.5t133 29q109 0 173 -62.5t88 -138.5l-143 -45q-9 43 -45 77t-73 34q-49 0 -76.5 -29t-27.5 -72q0 -33 8 -81h217v-123h-199
q1 -12 1 -32z" />
    <glyph glyph-name="yen" unicode="&#xa5;" horiz-adv-x="636" 
d="M562 398v-104h-169v-68h169v-103h-169v-123h-159v123h-159v103h159v68h-159v104h126l-202 334h183l132 -218l131 218h184l-202 -334h135z" />
    <glyph glyph-name="brokenbar" unicode="&#xa6;" horiz-adv-x="297" 
d="M206 833v-395h-119v395h119zM87 290h119v-394h-119v394z" />
    <glyph glyph-name="section" unicode="&#xa7;" horiz-adv-x="551" 
d="M481 306q-16 -28 -42 -42q26 -16 42.5 -50t16.5 -64q0 -55 -31.5 -92t-81.5 -54.5t-106 -17.5q-68 0 -123 23.5t-83 41.5t-33 21l65 93q49 -31 98 -49.5t89 -18.5q37 0 56 13.5t19 33.5q0 27 -24.5 38t-87.5 20q-80 12 -146.5 48.5t-66.5 115.5q0 40 23.5 69t53.5 45
q-36 15 -56.5 45.5t-20.5 65.5q0 61 39 94.5t86.5 45.5t82.5 12q60 0 114 -18t112 -56l-75 -93q-40 30 -76.5 43t-75.5 13q-38 0 -57 -11t-19 -30q0 -22 30.5 -33.5t87.5 -23.5q53 -12 95 -27.5t76.5 -49.5t34.5 -88q0 -35 -16 -63zM176 337q31 -21 70.5 -30t66.5 -9t49 16
t22 42q0 25 -26.5 44.5t-67 30t-79.5 10.5q-26 0 -46 -12t-20 -36q0 -35 31 -56z" />
    <glyph glyph-name="dieresis" unicode="&#xa8;" horiz-adv-x="431" 
d="M54.5 712.5q22.5 21.5 55.5 21.5t54.5 -21.5t21.5 -52.5q0 -32 -21.5 -52.5t-54.5 -20.5t-55.5 21t-22.5 52t22.5 52.5zM261 712.5q22 21.5 55 21.5q32 0 55 -21.5t23 -52.5t-22.5 -52t-55.5 -21q-34 0 -55.5 20.5t-21.5 52.5q0 31 22 52.5z" />
    <glyph glyph-name="copyright" unicode="&#xa9;" horiz-adv-x="859" 
d="M228.5 38.5q-89.5 50.5 -142 137t-52.5 188.5q0 101 52.5 187.5t142 137t195.5 50.5t196 -50.5t142.5 -137t52.5 -187.5q0 -102 -52.5 -188.5t-142.5 -137t-196 -50.5t-195.5 50.5zM272 617q-69 -39 -109.5 -106t-40.5 -147t40.5 -147.5t109.5 -106.5t152 -39t152.5 39
t110 106.5t40.5 147.5t-40.5 147t-110 106t-152.5 39t-152 -39zM525.5 196q-46.5 -28 -100.5 -28q-55 0 -100.5 26t-72.5 71t-27 98t27 97t72.5 69.5t100.5 25.5q58 0 104.5 -27.5t76.5 -77.5l-74 -31q-19 26 -47.5 42t-59.5 16q-49 0 -85 -33.5t-36 -80.5q0 -48 36 -81.5
t85 -33.5q30 0 58 14t46 38l73 -29q-30 -47 -76.5 -75z" />
    <glyph glyph-name="ordfeminine" unicode="&#xaa;" horiz-adv-x="379" 
d="M247 435q-40 -23 -81 -23q-76 0 -120 47t-44 119q0 71 44 118.5t120 47.5q46 0 81 -23v15h95v-317h-95v16zM226.5 634q-21.5 23 -52.5 23q-35 0 -55.5 -22.5t-20.5 -56.5t21 -56t55 -22q31 0 52.5 22.5t21.5 55.5t-21.5 56zM34 276v95h310v-95h-310z" />
    <glyph glyph-name="guillemotleft" unicode="&#xab;" horiz-adv-x="705" 
d="M49 274l157 236h165l-163 -236l164 -234h-167zM329 274l158 236h164l-162 -236l164 -234h-167z" />
    <glyph glyph-name="logicalnot" unicode="&#xac;" horiz-adv-x="613" 
d="M394 135v168h-350v136h508v-304h-158z" />
    <glyph glyph-name="uni00AD" unicode="&#xad;" horiz-adv-x="866" 
 />
    <glyph glyph-name="registered" unicode="&#xae;" horiz-adv-x="860" 
d="M228.5 38.5q-89.5 50.5 -142 137t-52.5 188.5q0 101 52.5 187.5t142 137t195.5 50.5t196 -50.5t142.5 -137t52.5 -187.5q0 -102 -52.5 -188.5t-142.5 -137t-196 -50.5t-195.5 50.5zM272 617q-69 -39 -109.5 -106t-40.5 -147t40.5 -147.5t109.5 -106.5t152 -39t152.5 39
t110 106.5t40.5 147.5t-40.5 147t-110 106t-152.5 39t-152 -39zM280 543h171q57 0 93 -34.5t36 -89.5q0 -38 -20 -68t-57 -48q49 -62 83 -108h-87q-5 7 -17 21q-31 39 -34 43l-27 35h-68v-99h-73v348zM451 364q20 0 39 11t19 44q0 56 -58 56h-98v-111h98z" />
    <glyph glyph-name="macron" unicode="&#xaf;" horiz-adv-x="392" 
d="M27 608v106h329v-106h-329z" />
    <glyph glyph-name="degree" unicode="&#xb0;" horiz-adv-x="349" 
d="M104.5 609q-31.5 18 -50.5 48.5t-19 65.5q0 36 19 66t50.5 48t68.5 18t68 -17.5t49.5 -48t18.5 -66.5q0 -35 -18.5 -65.5t-49.5 -48.5t-68 -18t-68.5 18zM143.5 751q-12.5 -12 -12.5 -28t12.5 -27.5t29.5 -11.5t28.5 11t11.5 28t-11.5 28.5t-28.5 11.5t-29.5 -12z" />
    <glyph glyph-name="plusminus" unicode="&#xb1;" horiz-adv-x="571" 
d="M499 343h-140v-148h-160v148h-141v134h141v150h160v-150h140v-134zM58 136h441v-136h-441v136z" />
    <glyph glyph-name="uni00B2" unicode="&#xb2;" horiz-adv-x="414" 
d="M381 351h-352v101l175 140q38 29 49.5 50t11.5 45q0 30 -19.5 44t-46.5 14q-33 0 -50 -26t-25 -49l-105 26q8 30 30 63t60 57t90 24q57 0 96.5 -22t59 -57t19.5 -74q0 -44 -22.5 -81.5t-54 -66.5t-83.5 -68l-34 -26h201v-94z" />
    <glyph glyph-name="uni00B3" unicode="&#xb3;" horiz-adv-x="399" 
d="M296 591q66 -31 66 -110q0 -18 -6.5 -41t-23.5 -44q-27 -31 -67 -44.5t-80 -13.5q-77 0 -119.5 44.5t-58.5 98.5l107 29l1 -13q15 -65 70 -65q33 0 50.5 14t17.5 35q0 40 -28 53t-94 16v84q45 2 69.5 6t38.5 17t14 39q0 21 -17.5 34.5t-50.5 13.5t-49 -21t-21 -44l-1 -12
l-107 29q16 54 58.5 98.5t119.5 44.5q61 0 101 -21t58 -53.5t18 -68.5q0 -76 -66 -105z" />
    <glyph glyph-name="acute" unicode="&#xb4;" horiz-adv-x="306" 
d="M284 696l-149 -108h-119l132 164z" />
    <glyph glyph-name="paragraph" unicode="&#xb6;" horiz-adv-x="566" 
d="M203 312q-47 3 -89 26.5t-68 67t-26 103.5q0 223 271 223h193v-732h-112v662h-57v-662h-112v312z" />
    <glyph glyph-name="periodcentered" unicode="&#xb7;" horiz-adv-x="214" 
d="M164.5 281.5q-24.5 -23.5 -58.5 -23.5t-58 23.5t-24 56.5q0 32 24 55.5t58 23.5t58.5 -23.5t24.5 -55.5q0 -33 -24.5 -56.5z" />
    <glyph glyph-name="cedilla" unicode="&#xb8;" horiz-adv-x="239" 
d="M201 -41q15 -22 15 -50q0 -57 -36.5 -76.5t-75.5 -19.5q-27 0 -48 8t-32.5 15.5t-14.5 10.5l28 49q3 -1 14 -6t22 -7t24 -2q15 0 22.5 5.5t7.5 15.5q0 22 -34 22q-16 0 -31 -6t-19 -7l-17 28l35 87h83l-16 -33q13 0 31 -5q27 -7 42 -29z" />
    <glyph glyph-name="uni00B9" unicode="&#xb9;" horiz-adv-x="297" 
d="M232 349h-109v302l-62 -58l-76 77l177 161h70v-482z" />
    <glyph glyph-name="ordmasculine" unicode="&#xba;" horiz-adv-x="411" 
d="M113 431.5q-40 22.5 -63.5 61t-23.5 83.5t23.5 84t63.5 61.5t87 22.5t87 -23t63.5 -61.5t23.5 -83.5t-23.5 -83.5t-63.5 -61t-87 -22.5t-87 22.5zM150.5 629q-20.5 -22 -20.5 -53t20 -52t50 -21q29 0 49 21t20 52q0 32 -20 53.5t-49 21.5t-49.5 -22zM45 276v95h310v-95
h-310z" />
    <glyph glyph-name="guillemotright" unicode="&#xbb;" horiz-adv-x="705" 
d="M46 510h163l159 -236l-158 -234h-166l163 234zM414 382q-38 54 -88 128h164l158 -236l-157 -234h-167l164 234z" />
    <glyph glyph-name="onequarter" unicode="&#xbc;" horiz-adv-x="909" 
d="M235 251h-108v302l-63 -57l-75 76l176 161h70v-482zM577 732h113l-453 -732h-113zM848 104h-60v-104h-108v104h-232v87l259 291h81v-285h60v-93zM592 197h88v105z" />
    <glyph glyph-name="onehalf" unicode="&#xbd;" horiz-adv-x="909" 
d="M236 251h-109v302l-63 -57l-75 76l176 161h71v-482zM577 732h114l-453 -732h-114zM872 0h-353v101l176 140q37 30 49 51t12 44q0 30 -19.5 44t-46.5 14q-33 0 -50 -26t-25 -49l-105 26q8 30 30 63t60 57t90 24q57 0 96.5 -22t59 -57t19.5 -74q0 -43 -22 -80t-53.5 -66
t-81.5 -67l-37 -29h201v-94z" />
    <glyph glyph-name="threequarters" unicode="&#xbe;" horiz-adv-x="996" 
d="M296 488q66 -31 66 -110q0 -17 -6.5 -40.5t-23.5 -44.5q-27 -31 -67 -44t-80 -13q-54 0 -92.5 23t-59.5 56t-26 63l107 30q4 -28 19.5 -53.5t51.5 -25.5q33 0 51 14t18 35q0 41 -28 54.5t-95 15.5v84q46 2 70.5 6t38.5 17t14 38q0 21 -18 34.5t-51 13.5q-37 0 -52 -24
t-19 -53l-107 29q16 54 58.5 98.5t119.5 44.5q61 0 101 -21t58 -53.5t18 -68.5q0 -76 -66 -105zM679 732h113l-452 -732h-114zM950 104h-59v-104h-109v104h-232v87l260 291h81v-285h59v-93zM694 197h88v105z" />
    <glyph glyph-name="questiondown" unicode="&#xbf;" horiz-adv-x="607" 
d="M275 726.5q25 23.5 59 23.5t58 -23.5t24 -56.5q0 -32 -24 -56t-58 -24t-59 24t-25 56q0 33 25 56.5zM48.5 131.5q-15.5 35.5 -15.5 73.5q0 58 22.5 97t52.5 61t74 44q43 23 59.5 50t16.5 78h155q0 -79 -40.5 -146t-113.5 -105q-40 -20 -53.5 -34.5t-13.5 -42.5
q0 -22 21 -43.5t86 -21.5q57 0 93 32t50 75l145 -46q-23 -71 -90 -141t-198 -70q-75 0 -127 22t-81 53q-27 29 -42.5 64.5z" />
    <glyph glyph-name="Agrave" unicode="&#xc0;" horiz-adv-x="805" 
d="M398 754l401 -754h-173l-58 112h-341l-56 -112h-174zM492 247l-94 191l-93 -191h187zM345 793l-150 108l136 56l132 -164h-118z" />
    <glyph glyph-name="Aacute" unicode="&#xc1;" horiz-adv-x="805" 
d="M398 754l401 -754h-173l-58 112h-341l-56 -112h-174zM492 247l-94 191l-93 -191h187zM598 901l-149 -108h-119l132 164z" />
    <glyph glyph-name="Acircumflex" unicode="&#xc2;" horiz-adv-x="805" 
d="M398 754l401 -754h-173l-58 112h-341l-56 -112h-174zM492 247l-94 191l-93 -191h187zM462 958l137 -165h-134l-68 64l-64 -65h-134l136 166h127z" />
    <glyph glyph-name="Atilde" unicode="&#xc3;" horiz-adv-x="805" 
d="M398 754l401 -754h-173l-58 112h-341l-56 -112h-174zM492 247l-94 191l-93 -191h187zM366.5 942q18.5 -9 39.5 -26q16 -13 28.5 -19.5t28.5 -6.5q28 0 40.5 17t21.5 40l90 -28q-13 -48 -45.5 -89t-83.5 -41q-33 0 -52.5 9t-41.5 27q-15 13 -27 19.5t-29 6.5
q-27 0 -39 -17t-20 -38l-89 30q17 54 49 89.5t82 35.5q29 0 47.5 -9z" />
    <glyph glyph-name="Adieresis" unicode="&#xc4;" horiz-adv-x="805" 
d="M398 754l401 -754h-173l-58 112h-341l-56 -112h-174zM492 247l-94 191l-93 -191h187zM239.5 910.5q22.5 21.5 55.5 21.5t54.5 -21.5t21.5 -52.5q0 -32 -21.5 -52.5t-54.5 -20.5t-55.5 21t-22.5 52t22.5 52.5zM446 910.5q22 21.5 55 21.5q32 0 55 -21.5t23 -52.5
t-22.5 -52t-55.5 -21q-34 0 -55.5 20.5t-21.5 52.5q0 31 22 52.5z" />
    <glyph glyph-name="Aring" unicode="&#xc5;" horiz-adv-x="805" 
d="M799 0h-173l-58 112h-341l-56 -112h-174l366 687q-36 11 -59 41t-23 68q0 46 34.5 79t82.5 33q49 0 83.5 -33t34.5 -79q0 -38 -23 -68t-60 -41zM374.5 818q-9.5 -9 -9.5 -22q0 -14 9.5 -23t23.5 -9t24 9t10 23q0 13 -10 22t-24 9t-23.5 -9zM492 247l-94 191l-93 -191h187
z" />
    <glyph glyph-name="AE" unicode="&#xc6;" horiz-adv-x="1104" 
d="M622 432h360v-141h-360v-151h406v-140h-565v120h-223l-82 -120h-180l502 732h548v-139h-406v-161zM334 257h129v198z" />
    <glyph glyph-name="Ccedilla" unicode="&#xc7;" horiz-adv-x="809" 
d="M90 554q53 87 143.5 138t197.5 51q108 0 201 -54.5t146 -145.5l-147 -57q-35 50 -88.5 82t-111.5 32q-64 0 -118 -32.5t-85.5 -86.5t-31.5 -116t31.5 -116.5t85.5 -87t118 -32.5q58 0 111.5 32.5t88.5 83.5l147 -57q-50 -86 -134.5 -140t-184.5 -61l-14 -28q13 0 31 -5
q27 -7 42 -29t15 -50q0 -57 -36.5 -76.5t-75.5 -19.5q-27 0 -48 8t-32.5 15.5t-14.5 10.5l28 49q3 -1 14 -6t22 -7t24 -2q15 0 22.5 5.5t7.5 15.5q0 22 -34 22q-16 0 -31 -6t-19 -7l-17 28l34 85q-95 12 -172.5 65t-122.5 134.5t-45 175.5q0 102 53 189z" />
    <glyph glyph-name="Egrave" unicode="&#xc8;" horiz-adv-x="700" 
d="M235 431h350v-138h-350v-156h396v-137h-554v731h554v-137h-396v-163zM329 793l-150 108l136 56l132 -164h-118z" />
    <glyph glyph-name="Eacute" unicode="&#xc9;" horiz-adv-x="700" 
d="M235 431h350v-138h-350v-156h396v-137h-554v731h554v-137h-396v-163zM532 901l-149 -108h-119l132 164z" />
    <glyph glyph-name="Ecircumflex" unicode="&#xca;" horiz-adv-x="700" 
d="M235 431h350v-138h-350v-156h396v-137h-554v731h554v-137h-396v-163zM413 958l137 -165h-134l-68 64l-64 -65h-134l136 166h127z" />
    <glyph glyph-name="Edieresis" unicode="&#xcb;" horiz-adv-x="700" 
d="M235 431h350v-138h-350v-156h396v-137h-554v731h554v-137h-396v-163zM197.5 910.5q22.5 21.5 55.5 21.5t54.5 -21.5t21.5 -52.5q0 -32 -21.5 -52.5t-54.5 -20.5t-55.5 21t-22.5 52t22.5 52.5zM404 910.5q22 21.5 55 21.5q32 0 55 -21.5t23 -52.5t-22.5 -52t-55.5 -21
q-34 0 -55.5 20.5t-21.5 52.5q0 31 22 52.5z" />
    <glyph glyph-name="Igrave" unicode="&#xcc;" horiz-adv-x="354" 
d="M96 0v731h158v-731h-158zM123 793l-150 108l136 56l132 -164h-118z" />
    <glyph glyph-name="Iacute" unicode="&#xcd;" horiz-adv-x="354" 
d="M96 0v731h158v-731h-158zM375 901l-149 -108h-119l132 164z" />
    <glyph glyph-name="Icircumflex" unicode="&#xce;" horiz-adv-x="354" 
d="M96 0v731h158v-731h-158zM238 958l137 -165h-134l-68 64l-64 -65h-134l136 166h127z" />
    <glyph glyph-name="Idieresis" unicode="&#xcf;" horiz-adv-x="354" 
d="M96 0v731h158v-731h-158zM19.5 910.5q22.5 21.5 55.5 21.5t54.5 -21.5t21.5 -52.5q0 -32 -21.5 -52.5t-54.5 -20.5t-55.5 21t-22.5 52t22.5 52.5zM226 910.5q22 21.5 55 21.5q32 0 55 -21.5t23 -52.5t-22.5 -52t-55.5 -21q-34 0 -55.5 20.5t-21.5 52.5q0 31 22 52.5z" />
    <glyph glyph-name="Eth" unicode="&#xd0;" horiz-adv-x="848" 
d="M108 294h-82v136h82v301h303q161 0 267 -92q55 -49 84 -118.5t29 -154.5q0 -83 -29.5 -154.5t-83.5 -120.5q-51 -44 -119.5 -67.5t-147.5 -23.5h-303v294zM267 294v-157h144q94 0 157.5 49t63.5 179t-64 179t-157 49h-144v-163h128v-136h-128z" />
    <glyph glyph-name="Ntilde" unicode="&#xd1;" horiz-adv-x="828" 
d="M235 0h-157v754l504 -446v422h158v-753l-505 439v-416zM376.5 942q18.5 -9 39.5 -26q16 -13 28.5 -19.5t28.5 -6.5q28 0 40.5 17t21.5 40l90 -28q-13 -48 -45.5 -89t-83.5 -41q-33 0 -52.5 9t-41.5 27q-15 13 -27 19.5t-29 6.5q-27 0 -39 -17t-20 -38l-89 30
q17 54 49 89.5t82 35.5q29 0 47.5 -9z" />
    <glyph glyph-name="Ograve" unicode="&#xd2;" horiz-adv-x="880" 
d="M237 37q-90 51 -143 138.5t-53 190.5q0 102 53 189.5t143 138.5t197 51t198 -51t144 -138.5t53 -189.5q0 -103 -53 -190.5t-144 -138.5t-198 -51t-197 51zM316 568.5q-54 -32.5 -86 -86.5t-32 -116t32 -116.5t86 -87.5t118 -33t118.5 33t86 87.5t31.5 116.5t-31.5 116
t-86 86.5t-118.5 32.5t-118 -32.5zM418 793l-150 108l136 56l132 -164h-118z" />
    <glyph glyph-name="Oacute" unicode="&#xd3;" horiz-adv-x="880" 
d="M237 37q-90 51 -143 138.5t-53 190.5q0 102 53 189.5t143 138.5t197 51t198 -51t144 -138.5t53 -189.5q0 -103 -53 -190.5t-144 -138.5t-198 -51t-197 51zM316 568.5q-54 -32.5 -86 -86.5t-32 -116t32 -116.5t86 -87.5t118 -33t118.5 33t86 87.5t31.5 116.5t-31.5 116
t-86 86.5t-118.5 32.5t-118 -32.5zM624 901l-149 -108h-119l132 164z" />
    <glyph glyph-name="Ocircumflex" unicode="&#xd4;" horiz-adv-x="880" 
d="M237 37q-90 51 -143 138.5t-53 190.5q0 102 53 189.5t143 138.5t197 51t198 -51t144 -138.5t53 -189.5q0 -103 -53 -190.5t-144 -138.5t-198 -51t-197 51zM316 568.5q-54 -32.5 -86 -86.5t-32 -116t32 -116.5t86 -87.5t118 -33t118.5 33t86 87.5t31.5 116.5t-31.5 116
t-86 86.5t-118.5 32.5t-118 -32.5zM489 958l137 -165h-134l-68 64l-64 -65h-134l136 166h127z" />
    <glyph glyph-name="Otilde" unicode="&#xd5;" horiz-adv-x="880" 
d="M237 37q-90 51 -143 138.5t-53 190.5q0 102 53 189.5t143 138.5t197 51t198 -51t144 -138.5t53 -189.5q0 -103 -53 -190.5t-144 -138.5t-198 -51t-197 51zM316 568.5q-54 -32.5 -86 -86.5t-32 -116t32 -116.5t86 -87.5t118 -33t118.5 33t86 87.5t31.5 116.5t-31.5 116
t-86 86.5t-118.5 32.5t-118 -32.5zM395.5 942q18.5 -9 39.5 -26q16 -13 28.5 -19.5t28.5 -6.5q28 0 40.5 17t21.5 40l90 -28q-13 -48 -45.5 -89t-83.5 -41q-33 0 -52.5 9t-41.5 27q-15 13 -27 19.5t-29 6.5q-27 0 -39 -17t-20 -38l-89 30q17 54 49 89.5t82 35.5
q29 0 47.5 -9z" />
    <glyph glyph-name="Odieresis" unicode="&#xd6;" horiz-adv-x="880" 
d="M237 37q-90 51 -143 138.5t-53 190.5q0 102 53 189.5t143 138.5t197 51t198 -51t144 -138.5t53 -189.5q0 -103 -53 -190.5t-144 -138.5t-198 -51t-197 51zM316 568.5q-54 -32.5 -86 -86.5t-32 -116t32 -116.5t86 -87.5t118 -33t118.5 33t86 87.5t31.5 116.5t-31.5 116
t-86 86.5t-118.5 32.5t-118 -32.5zM271.5 910.5q22.5 21.5 55.5 21.5t54.5 -21.5t21.5 -52.5q0 -32 -21.5 -52.5t-54.5 -20.5t-55.5 21t-22.5 52t22.5 52.5zM478 910.5q22 21.5 55 21.5q32 0 55 -21.5t23 -52.5t-22.5 -52t-55.5 -21q-34 0 -55.5 20.5t-21.5 52.5
q0 31 22 52.5z" />
    <glyph glyph-name="multiply" unicode="&#xd7;" horiz-adv-x="524" 
d="M366 302l131 -127l-110 -105l-131 127l-130 -126l-109 106l131 125l-131 125l109 105l130 -124l132 125l110 -105z" />
    <glyph glyph-name="Oslash" unicode="&#xd8;" horiz-adv-x="880" 
d="M67 49l66 72q-92 106 -92 245q0 102 53 189.5t143 138.5t197 51q116 0 215 -62l61 70l90 -75l-64 -70q45 -51 69 -112.5t24 -129.5q0 -103 -53 -190.5t-144 -138.5t-198 -51q-57 0 -111 15.5t-101 43.5l-66 -70zM316 568.5q-54 -32.5 -86 -86.5t-32 -116q0 -32 11 -66
t29 -62l308 334q-25 14 -54.5 21.5t-57.5 7.5q-64 0 -118 -32.5zM552.5 162q54.5 33 86 87.5t31.5 116.5q0 63 -39 126l-308 -335q58 -28 111 -28q64 0 118.5 33z" />
    <glyph glyph-name="Ugrave" unicode="&#xd9;" horiz-adv-x="820" 
d="M233 25q-74 38 -114.5 108t-40.5 163v434h158v-434q0 -64 27.5 -102.5t66 -54.5t76.5 -16q37 0 75.5 16t65.5 54.5t27 102.5v434h158v-434q0 -93 -40 -163t-114 -108t-172 -38q-99 0 -173 38zM374 793l-150 108l136 56l132 -164h-118z" />
    <glyph glyph-name="Uacute" unicode="&#xda;" horiz-adv-x="820" 
d="M233 25q-74 38 -114.5 108t-40.5 163v434h158v-434q0 -64 27.5 -102.5t66 -54.5t76.5 -16q37 0 75.5 16t65.5 54.5t27 102.5v434h158v-434q0 -93 -40 -163t-114 -108t-172 -38q-99 0 -173 38zM561 901l-149 -108h-119l132 164z" />
    <glyph glyph-name="Ucircumflex" unicode="&#xdb;" horiz-adv-x="820" 
d="M233 25q-74 38 -114.5 108t-40.5 163v434h158v-434q0 -64 27.5 -102.5t66 -54.5t76.5 -16q37 0 75.5 16t65.5 54.5t27 102.5v434h158v-434q0 -93 -40 -163t-114 -108t-172 -38q-99 0 -173 38zM466 958l137 -165h-134l-68 64l-64 -65h-134l136 166h127z" />
    <glyph glyph-name="Udieresis" unicode="&#xdc;" horiz-adv-x="820" 
d="M233 25q-74 38 -114.5 108t-40.5 163v434h158v-434q0 -64 27.5 -102.5t66 -54.5t76.5 -16q37 0 75.5 16t65.5 54.5t27 102.5v434h158v-434q0 -93 -40 -163t-114 -108t-172 -38q-99 0 -173 38zM245.5 910.5q22.5 21.5 55.5 21.5t54.5 -21.5t21.5 -52.5q0 -32 -21.5 -52.5
t-54.5 -20.5t-55.5 21t-22.5 52t22.5 52.5zM452 910.5q22 21.5 55 21.5q32 0 55 -21.5t23 -52.5t-22.5 -52t-55.5 -21q-34 0 -55.5 20.5t-21.5 52.5q0 31 22 52.5z" />
    <glyph glyph-name="Yacute" unicode="&#xdd;" horiz-adv-x="734" 
d="M444 277v-277h-158v277l-288 453h185l182 -295l184 295h185zM527 901l-149 -108h-119l132 164z" />
    <glyph glyph-name="Thorn" unicode="&#xde;" horiz-adv-x="739" 
d="M553.5 592.5q62.5 -35.5 99.5 -96t37 -130.5q0 -71 -37 -131t-99.5 -95.5t-136.5 -35.5h-181v-104h-158v731h158v-103h181q74 0 136.5 -35.5zM473.5 259.5q26.5 18.5 42 47.5t15.5 59t-15.5 59t-42 47t-56.5 18h-181v-249h181q30 0 56.5 18.5z" />
    <glyph glyph-name="germandbls" unicode="&#xdf;" horiz-adv-x="699" 
d="M544.5 453q-23.5 -38 -60.5 -55q62 -16 110 -63t48 -129q0 -108 -66.5 -163t-186.5 -55q-20 0 -58 4t-63 11v128q55 -9 89 -9q65 0 101 23.5t36 72.5q0 42 -34 61t-75.5 23t-101.5 4v144q79 0 107.5 26t28.5 53t-17.5 50t-74.5 23q-61 0 -77.5 -27t-16.5 -47l1 -528h-151
v521q0 37 11 74.5t45 75.5q69 69 188 69q62 0 116.5 -21.5t89.5 -69t35 -121.5q0 -37 -23.5 -75z" />
    <glyph glyph-name="agrave" unicode="&#xe0;" 
d="M486 55q-19 -26 -65.5 -46.5t-101.5 -20.5q-85 0 -147.5 38t-95.5 103.5t-33 145.5t33 145.5t95.5 103.5t147.5 38q57 0 100.5 -19.5t66.5 -49.5v57h148v-550h-148v55zM451 387.5q-41 43.5 -110 43.5q-70 0 -110.5 -43.5t-40.5 -112.5q0 -67 41.5 -111t109.5 -44
q70 0 110.5 41.5t40.5 113.5q0 69 -41 112.5zM325 611l-150 108l136 56l132 -164h-118z" />
    <glyph glyph-name="aacute" unicode="&#xe1;" 
d="M486 55q-19 -26 -65.5 -46.5t-101.5 -20.5q-85 0 -147.5 38t-95.5 103.5t-33 145.5t33 145.5t95.5 103.5t147.5 38q57 0 100.5 -19.5t66.5 -49.5v57h148v-550h-148v55zM451 387.5q-41 43.5 -110 43.5q-70 0 -110.5 -43.5t-40.5 -112.5q0 -67 41.5 -111t109.5 -44
q70 0 110.5 41.5t40.5 113.5q0 69 -41 112.5zM529 720l-149 -108h-119l132 164z" />
    <glyph glyph-name="acircumflex" unicode="&#xe2;" 
d="M486 55q-19 -26 -65.5 -46.5t-101.5 -20.5q-85 0 -147.5 38t-95.5 103.5t-33 145.5t33 145.5t95.5 103.5t147.5 38q57 0 100.5 -19.5t66.5 -49.5v57h148v-550h-148v55zM451 387.5q-41 43.5 -110 43.5q-70 0 -110.5 -43.5t-40.5 -112.5q0 -67 41.5 -111t109.5 -44
q70 0 110.5 41.5t40.5 113.5q0 69 -41 112.5zM430 778l137 -165h-134l-68 64l-64 -65h-134l136 166h127z" />
    <glyph glyph-name="atilde" unicode="&#xe3;" 
d="M486 55q-19 -26 -65.5 -46.5t-101.5 -20.5q-85 0 -147.5 38t-95.5 103.5t-33 145.5t33 145.5t95.5 103.5t147.5 38q57 0 100.5 -19.5t66.5 -49.5v57h148v-550h-148v55zM451 387.5q-41 43.5 -110 43.5q-70 0 -110.5 -43.5t-40.5 -112.5q0 -67 41.5 -111t109.5 -44
q70 0 110.5 41.5t40.5 113.5q0 69 -41 112.5zM323.5 761q18.5 -9 39.5 -26q16 -13 28.5 -19.5t28.5 -6.5q28 0 40.5 17t21.5 40l90 -28q-13 -48 -45.5 -89t-83.5 -41q-33 0 -52.5 9t-41.5 27q-15 13 -27 19.5t-29 6.5q-27 0 -39 -17t-20 -38l-89 30q17 54 49 89.5t82 35.5
q29 0 47.5 -9z" />
    <glyph glyph-name="adieresis" unicode="&#xe4;" 
d="M486 55q-19 -26 -65.5 -46.5t-101.5 -20.5q-85 0 -147.5 38t-95.5 103.5t-33 145.5t33 145.5t95.5 103.5t147.5 38q57 0 100.5 -19.5t66.5 -49.5v57h148v-550h-148v55zM451 387.5q-41 43.5 -110 43.5q-70 0 -110.5 -43.5t-40.5 -112.5q0 -67 41.5 -111t109.5 -44
q70 0 110.5 41.5t40.5 113.5q0 69 -41 112.5zM215.5 735.5q22.5 21.5 55.5 21.5t54.5 -21.5t21.5 -52.5q0 -32 -21.5 -52.5t-54.5 -20.5t-55.5 21t-22.5 52t22.5 52.5zM422 735.5q22 21.5 55 21.5q32 0 55 -21.5t23 -52.5t-22.5 -52t-55.5 -21q-34 0 -55.5 20.5t-21.5 52.5
q0 31 22 52.5z" />
    <glyph glyph-name="aring" unicode="&#xe5;" 
d="M486 55q-19 -26 -65.5 -46.5t-101.5 -20.5q-85 0 -147.5 38t-95.5 103.5t-33 145.5t33 145.5t95.5 103.5t147.5 38q57 0 100.5 -19.5t66.5 -49.5v57h148v-550h-148v55zM451 387.5q-41 43.5 -110 43.5q-70 0 -110.5 -43.5t-40.5 -112.5q0 -67 41.5 -111t109.5 -44
q70 0 110.5 41.5t40.5 113.5q0 69 -41 112.5zM275.5 640.5q-34.5 33.5 -34.5 80.5q0 46 34.5 79t82.5 33q49 0 83.5 -33t34.5 -79q0 -47 -34.5 -80.5t-83.5 -33.5q-48 0 -82.5 33.5zM334.5 743q-9.5 -9 -9.5 -22q0 -14 9.5 -23t23.5 -9t24 9t10 23q0 13 -10 22t-24 9
t-23.5 -9z" />
    <glyph glyph-name="ae" unicode="&#xe6;" horiz-adv-x="1050" 
d="M597.5 6q-58.5 20 -102.5 64q-51 -52 -111.5 -67t-136.5 -15q-28 0 -75.5 13t-89 53t-41.5 113q0 76 45.5 118t105.5 56.5t115 14.5q56 0 101 -7q-8 39 -32.5 57.5t-84.5 18.5q-81 0 -165 -51l-66 113q40 25 110.5 49t146.5 24q62 0 110.5 -19t77.5 -55q43 38 99 55.5
t106 17.5q72 0 137 -32t106.5 -94t43.5 -147q0 -26 -1 -45t-2 -24h-434q12 -58 60 -79t90 -21q54 0 86 19.5t55 44.5l116 -67q-94 -128 -257 -128q-54 0 -112.5 20zM612 399.5q-38 -28.5 -48 -68.5h275q-9 39 -43 68t-86 29q-60 0 -98 -28.5zM377.5 143.5
q38.5 24.5 38.5 73.5q0 5 -2 19q-33 4 -100 4q-43 0 -81.5 -13t-38.5 -52q0 -34 31.5 -45t59.5 -11q54 0 92.5 24.5z" />
    <glyph glyph-name="ccedilla" unicode="&#xe7;" horiz-adv-x="650" 
d="M83.5 416.5q40.5 65.5 109 104t149.5 38.5q87 0 157.5 -41.5t112.5 -118.5l-135 -53q-24 41 -59 61.5t-76 20.5q-65 0 -107.5 -44t-42.5 -111t43 -111t108 -44q90 0 139 80l127 -50q-72 -146 -232 -161l-12 -25q13 0 31 -5q27 -7 42 -29t15 -50q0 -57 -36.5 -76.5
t-75.5 -19.5q-27 0 -48 8t-32.5 15.5t-14.5 10.5l28 49q3 -1 14 -6t22 -7t24 -2q15 0 22.5 5.5t7.5 15.5q0 22 -34 22q-16 0 -31 -6t-19 -7l-17 28l33 82q-70 10 -128 50.5t-91.5 101.5t-33.5 131q0 78 40.5 143.5z" />
    <glyph glyph-name="egrave" unicode="&#xe8;" horiz-adv-x="681" 
d="M209.5 13q-68.5 27 -117.5 91.5t-49 168.5t49.5 168t118.5 91t131 27q72 0 137 -32t106.5 -94t43.5 -147q0 -26 -1 -45t-2 -24h-434q12 -58 60 -79t90 -21q54 0 86 19.5t55 44.5l116 -67q-94 -128 -257 -128q-64 0 -132.5 27zM240 397.5q-39 -30.5 -44 -74.5h275
q-3 26 -20 50t-45.5 39.5t-64.5 15.5q-62 0 -101 -30.5zM313 611l-150 108l136 56l132 -164h-118z" />
    <glyph glyph-name="eacute" unicode="&#xe9;" horiz-adv-x="681" 
d="M209.5 13q-68.5 27 -117.5 91.5t-49 168.5t49.5 168t118.5 91t131 27q72 0 137 -32t106.5 -94t43.5 -147q0 -26 -1 -45t-2 -24h-434q12 -58 60 -79t90 -21q54 0 86 19.5t55 44.5l116 -67q-94 -128 -257 -128q-64 0 -132.5 27zM240 397.5q-39 -30.5 -44 -74.5h275
q-3 26 -20 50t-45.5 39.5t-64.5 15.5q-62 0 -101 -30.5zM529 720l-149 -108h-119l132 164z" />
    <glyph glyph-name="ecircumflex" unicode="&#xea;" horiz-adv-x="681" 
d="M209.5 13q-68.5 27 -117.5 91.5t-49 168.5t49.5 168t118.5 91t131 27q72 0 137 -32t106.5 -94t43.5 -147q0 -26 -1 -45t-2 -24h-434q12 -58 60 -79t90 -21q54 0 86 19.5t55 44.5l116 -67q-94 -128 -257 -128q-64 0 -132.5 27zM240 397.5q-39 -30.5 -44 -74.5h275
q-3 26 -20 50t-45.5 39.5t-64.5 15.5q-62 0 -101 -30.5zM404 778l137 -165h-134l-68 64l-64 -65h-134l136 166h127z" />
    <glyph glyph-name="edieresis" unicode="&#xeb;" horiz-adv-x="681" 
d="M209.5 13q-68.5 27 -117.5 91.5t-49 168.5t49.5 168t118.5 91t131 27q72 0 137 -32t106.5 -94t43.5 -147q0 -26 -1 -45t-2 -24h-434q12 -58 60 -79t90 -21q54 0 86 19.5t55 44.5l116 -67q-94 -128 -257 -128q-64 0 -132.5 27zM240 397.5q-39 -30.5 -44 -74.5h275
q-3 26 -20 50t-45.5 39.5t-64.5 15.5q-62 0 -101 -30.5zM185.5 735.5q22.5 21.5 55.5 21.5t54.5 -21.5t21.5 -52.5q0 -32 -21.5 -52.5t-54.5 -20.5t-55.5 21t-22.5 52t22.5 52.5zM392 735.5q22 21.5 55 21.5q32 0 55 -21.5t23 -52.5t-22.5 -52t-55.5 -21q-34 0 -55.5 20.5
t-21.5 52.5q0 31 22 52.5z" />
    <glyph glyph-name="igrave" unicode="&#xec;" horiz-adv-x="305" 
d="M101 611l-150 108l136 56l132 -164h-118zM76 549h150v-549h-150v549z" />
    <glyph glyph-name="iacute" unicode="&#xed;" horiz-adv-x="315" 
d="M352 720l-149 -108h-119l132 164zM76 549h150v-549h-150v549z" />
    <glyph glyph-name="icircumflex" unicode="&#xee;" horiz-adv-x="305" 
d="M213 778l137 -165h-134l-68 64l-64 -65h-134l136 166h127zM76 549h150v-549h-150v549z" />
    <glyph glyph-name="idieresis" unicode="&#xef;" horiz-adv-x="305" 
d="M-5.5 735.5q22.5 21.5 55.5 21.5t54.5 -21.5t21.5 -52.5q0 -32 -21.5 -52.5t-54.5 -20.5t-55.5 21t-22.5 52t22.5 52.5zM201 735.5q22 21.5 55 21.5q32 0 55 -21.5t23 -52.5t-22.5 -52t-55.5 -21q-34 0 -55.5 20.5t-21.5 52.5q0 31 22 52.5zM76 549h150v-549h-150v549z
" />
    <glyph glyph-name="eth" unicode="&#xf0;" horiz-adv-x="734" 
d="M585 481q45 -97 47 -203q0 -86 -33.5 -151.5t-100.5 -102.5t-164 -37q-67 0 -130.5 27t-105.5 88t-42 157q0 67 33 125t91.5 92t131.5 34q63 0 111 -21q-34 59 -88 101l-123 -47l-36 84l73 27l-77 45l137 68q21 -13 52 -36q22 -16 33 -23l100 39l35 -84l-54 -21
q65 -64 110 -161zM447.5 157q40.5 37 40.5 97q0 61 -40.5 97.5t-103.5 36.5q-68 0 -106 -36.5t-38 -97.5q0 -60 42 -97t102 -37q63 0 103.5 37z" />
    <glyph glyph-name="ntilde" unicode="&#xf1;" horiz-adv-x="658" 
d="M529.5 499q51.5 -61 51.5 -174v-325h-153v325q0 111 -106 111q-41 0 -74 -32.5t-31 -112.5v-291h-149v550h149v-49q27 27 68 43t79 16q114 0 165.5 -61zM285.5 761q18.5 -9 39.5 -26q16 -13 28.5 -19.5t28.5 -6.5q28 0 40.5 17t21.5 40l90 -28q-13 -48 -45.5 -89
t-83.5 -41q-33 0 -52.5 9t-41.5 27q-15 13 -27 19.5t-29 6.5q-27 0 -39 -17t-20 -38l-89 30q17 54 49 89.5t82 35.5q29 0 47.5 -9z" />
    <glyph glyph-name="ograve" unicode="&#xf2;" horiz-adv-x="694" 
d="M191.5 25.5q-68.5 38.5 -108.5 104.5t-40 144q0 77 40 143t108.5 104.5t149.5 38.5t150 -38.5t109.5 -104.5t40.5 -143q0 -78 -40.5 -144t-109.5 -104.5t-150 -38.5t-149.5 38.5zM265 408.5q-35 -20.5 -55 -56t-20 -78.5q0 -45 19.5 -80.5t54 -56t77.5 -20.5
q42 0 76.5 20.5t54.5 56.5t20 80q0 43 -20 78.5t-54.5 56t-76.5 20.5q-41 0 -76 -20.5zM317 611l-150 108l136 56l132 -164h-118z" />
    <glyph glyph-name="oacute" unicode="&#xf3;" horiz-adv-x="694" 
d="M191.5 25.5q-68.5 38.5 -108.5 104.5t-40 144q0 77 40 143t108.5 104.5t149.5 38.5t150 -38.5t109.5 -104.5t40.5 -143q0 -78 -40.5 -144t-109.5 -104.5t-150 -38.5t-149.5 38.5zM265 408.5q-35 -20.5 -55 -56t-20 -78.5q0 -45 19.5 -80.5t54 -56t77.5 -20.5
q42 0 76.5 20.5t54.5 56.5t20 80q0 43 -20 78.5t-54.5 56t-76.5 20.5q-41 0 -76 -20.5zM520 720l-149 -108h-119l132 164z" />
    <glyph glyph-name="ocircumflex" unicode="&#xf4;" horiz-adv-x="694" 
d="M191.5 25.5q-68.5 38.5 -108.5 104.5t-40 144q0 77 40 143t108.5 104.5t149.5 38.5t150 -38.5t109.5 -104.5t40.5 -143q0 -78 -40.5 -144t-109.5 -104.5t-150 -38.5t-149.5 38.5zM265 408.5q-35 -20.5 -55 -56t-20 -78.5q0 -45 19.5 -80.5t54 -56t77.5 -20.5
q42 0 76.5 20.5t54.5 56.5t20 80q0 43 -20 78.5t-54.5 56t-76.5 20.5q-41 0 -76 -20.5zM404 778l137 -165h-134l-68 64l-64 -65h-134l136 166h127z" />
    <glyph glyph-name="otilde" unicode="&#xf5;" horiz-adv-x="694" 
d="M191.5 25.5q-68.5 38.5 -108.5 104.5t-40 144q0 77 40 143t108.5 104.5t149.5 38.5t150 -38.5t109.5 -104.5t40.5 -143q0 -78 -40.5 -144t-109.5 -104.5t-150 -38.5t-149.5 38.5zM265 408.5q-35 -20.5 -55 -56t-20 -78.5q0 -45 19.5 -80.5t54 -56t77.5 -20.5
q42 0 76.5 20.5t54.5 56.5t20 80q0 43 -20 78.5t-54.5 56t-76.5 20.5q-41 0 -76 -20.5zM296.5 761q18.5 -9 39.5 -26q16 -13 28.5 -19.5t28.5 -6.5q28 0 40.5 17t21.5 40l90 -28q-13 -48 -45.5 -89t-83.5 -41q-33 0 -52.5 9t-41.5 27q-15 13 -27 19.5t-29 6.5q-27 0 -39 -17
t-20 -38l-89 30q17 54 49 89.5t82 35.5q29 0 47.5 -9z" />
    <glyph glyph-name="odieresis" unicode="&#xf6;" horiz-adv-x="694" 
d="M191.5 25.5q-68.5 38.5 -108.5 104.5t-40 144q0 77 40 143t108.5 104.5t149.5 38.5t150 -38.5t109.5 -104.5t40.5 -143q0 -78 -40.5 -144t-109.5 -104.5t-150 -38.5t-149.5 38.5zM265 408.5q-35 -20.5 -55 -56t-20 -78.5q0 -45 19.5 -80.5t54 -56t77.5 -20.5
q42 0 76.5 20.5t54.5 56.5t20 80q0 43 -20 78.5t-54.5 56t-76.5 20.5q-41 0 -76 -20.5zM183.5 735.5q22.5 21.5 55.5 21.5t54.5 -21.5t21.5 -52.5q0 -32 -21.5 -52.5t-54.5 -20.5t-55.5 21t-22.5 52t22.5 52.5zM390 735.5q22 21.5 55 21.5q32 0 55 -21.5t23 -52.5t-22.5 -52
t-55.5 -21q-34 0 -55.5 20.5t-21.5 52.5q0 31 22 52.5z" />
    <glyph glyph-name="divide" unicode="&#xf7;" horiz-adv-x="636" 
d="M370 486q-23 -23 -56 -23t-56.5 23t-23.5 54t23.5 53.5t56.5 22.5t56 -22t23 -54q0 -31 -23 -54zM45 244v136h538v-136h-538zM370 33q-23 -22 -56 -22t-56.5 22.5t-23.5 53.5t23.5 53t56.5 22t56 -22t23 -53q0 -32 -23 -54z" />
    <glyph glyph-name="oslash" unicode="&#xf8;" horiz-adv-x="694" 
d="M63 55l41 44q-29 37 -45 81.5t-16 93.5q0 77 40 143t108.5 104.5t149.5 38.5q84 0 157 -43l44 46l80 -75l-41 -44q28 -36 44 -80t16 -90q0 -78 -40.5 -144t-109.5 -104.5t-150 -38.5q-84 0 -153 40l-45 -47zM265 408.5q-35 -20.5 -55 -56t-20 -78.5q0 -38 14 -69l199 211
q-31 13 -62 13q-41 0 -76 -20.5zM417.5 137.5q34.5 20.5 54.5 56.5t20 80q0 32 -13 63l-197 -209q28 -11 59 -11q42 0 76.5 20.5z" />
    <glyph glyph-name="ugrave" unicode="&#xf9;" horiz-adv-x="658" 
d="M68 223v325h151v-325q0 -59 29.5 -84.5t77.5 -25.5q42 0 75 32.5t30 111.5v291h150v-548h-150v47q-27 -28 -65.5 -43.5t-81.5 -15.5q-216 0 -216 235zM292 611l-150 108l136 56l132 -164h-118z" />
    <glyph glyph-name="uacute" unicode="&#xfa;" horiz-adv-x="658" 
d="M68 223v325h151v-325q0 -59 29.5 -84.5t77.5 -25.5q42 0 75 32.5t30 111.5v291h150v-548h-150v47q-27 -28 -65.5 -43.5t-81.5 -15.5q-216 0 -216 235zM510 720l-149 -108h-119l132 164z" />
    <glyph glyph-name="ucircumflex" unicode="&#xfb;" horiz-adv-x="658" 
d="M68 223v325h151v-325q0 -59 29.5 -84.5t77.5 -25.5q42 0 75 32.5t30 111.5v291h150v-548h-150v47q-27 -28 -65.5 -43.5t-81.5 -15.5q-216 0 -216 235zM387 778l137 -165h-134l-68 64l-64 -65h-134l136 166h127z" />
    <glyph glyph-name="udieresis" unicode="&#xfc;" horiz-adv-x="658" 
d="M68 223v325h151v-325q0 -59 29.5 -84.5t77.5 -25.5q42 0 75 32.5t30 111.5v291h150v-548h-150v47q-27 -28 -65.5 -43.5t-81.5 -15.5q-216 0 -216 235zM165.5 735.5q22.5 21.5 55.5 21.5t54.5 -21.5t21.5 -52.5q0 -32 -21.5 -52.5t-54.5 -20.5t-55.5 21t-22.5 52
t22.5 52.5zM372 735.5q22 21.5 55 21.5q32 0 55 -21.5t23 -52.5t-22.5 -52t-55.5 -21q-34 0 -55.5 20.5t-21.5 52.5q0 31 22 52.5z" />
    <glyph glyph-name="yacute" unicode="&#xfd;" horiz-adv-x="643" 
d="M150 -206l95 226l-236 528h173l139 -350l128 350h173l-307 -754h-165zM510 720l-149 -108h-119l132 164z" />
    <glyph glyph-name="thorn" unicode="&#xfe;" 
d="M68 756h149v-251q30 25 71.5 41t89.5 16q87 0 151 -38t97.5 -103.5t33.5 -145.5t-33.5 -145.5t-97.5 -103.5t-151 -38q-52 0 -93 16t-68 41v-223h-149v934zM231 196.5q20 -35.5 54.5 -56t76.5 -20.5q68 0 109 44t41 111q0 69 -40 112.5t-110 43.5q-42 0 -76.5 -20.5
t-54.5 -56t-20 -79.5q0 -43 20 -78.5z" />
    <glyph glyph-name="ydieresis" unicode="&#xff;" horiz-adv-x="643" 
d="M150 -206l95 226l-236 528h173l139 -350l128 350h173l-307 -754h-165zM161.5 735.5q22.5 21.5 55.5 21.5t54.5 -21.5t21.5 -52.5q0 -32 -21.5 -52.5t-54.5 -20.5t-55.5 21t-22.5 52t22.5 52.5zM368 735.5q22 21.5 55 21.5q32 0 55 -21.5t23 -52.5t-22.5 -52t-55.5 -21
q-34 0 -55.5 20.5t-21.5 52.5q0 31 22 52.5z" />
    <glyph glyph-name="Amacron" unicode="&#x100;" horiz-adv-x="805" 
d="M398 754l401 -754h-173l-58 112h-341l-56 -112h-174zM492 247l-94 191l-93 -191h187zM235 794v106h329v-106h-329z" />
    <glyph glyph-name="amacron" unicode="&#x101;" 
d="M486 55q-19 -26 -65.5 -46.5t-101.5 -20.5q-85 0 -147.5 38t-95.5 103.5t-33 145.5t33 145.5t95.5 103.5t147.5 38q57 0 100.5 -19.5t66.5 -49.5v57h148v-550h-148v55zM451 387.5q-41 43.5 -110 43.5q-70 0 -110.5 -43.5t-40.5 -112.5q0 -67 41.5 -111t109.5 -44
q70 0 110.5 41.5t40.5 113.5q0 69 -41 112.5zM197 613v106h329v-106h-329z" />
    <glyph glyph-name="Abreve" unicode="&#x102;" horiz-adv-x="805" 
d="M398 754l401 -754h-173l-58 112h-341l-56 -112h-174zM492 247l-94 191l-93 -191h187zM530 831q-53 -45 -129 -45q-77 0 -131 45.5t-66 119.5h108q9 -32 33.5 -47t55.5 -15q35 0 56.5 17t30.5 45h107q-12 -75 -65 -120z" />
    <glyph glyph-name="abreve" unicode="&#x103;" 
d="M486 55q-19 -26 -65.5 -46.5t-101.5 -20.5q-85 0 -147.5 38t-95.5 103.5t-33 145.5t33 145.5t95.5 103.5t147.5 38q57 0 100.5 -19.5t66.5 -49.5v57h148v-550h-148v55zM451 387.5q-41 43.5 -110 43.5q-70 0 -110.5 -43.5t-40.5 -112.5q0 -67 41.5 -111t109.5 -44
q70 0 110.5 41.5t40.5 113.5q0 69 -41 112.5zM491 654q-53 -45 -129 -45q-77 0 -131 45.5t-66 119.5h108q9 -32 33.5 -47t55.5 -15q35 0 56.5 17t30.5 45h107q-12 -75 -65 -120z" />
    <glyph glyph-name="Aogonek" unicode="&#x104;" horiz-adv-x="805" 
d="M868 -162q-7 -3 -28 -10.5t-41 -10.5q-10 -2 -32 -2q-26 0 -51 8.5t-44 22.5q-24 19 -38.5 48.5t-14.5 60.5q0 25 7 45l-58 112h-341l-56 -112h-174l401 754l401 -754h-7q-25 0 -45.5 -12.5t-19.5 -34.5q3 -35 40 -35q26 0 56 15zM492 247l-94 191l-93 -191h187z" />
    <glyph glyph-name="aogonek" unicode="&#x105;" 
d="M716 -162q-7 -3 -28 -10.5t-41 -10.5q-10 -2 -32 -2q-26 0 -53 8.5t-45 22.5q-44 35 -44 90q0 37 13 64v45q-27 -25 -68.5 -41t-91.5 -16q-88 0 -152 38t-97.5 103.5t-33.5 145.5t33.5 145.5t97.5 103.5t152 38q100 0 160 -57v45h148v-550q-24 0 -41.5 -11.5t-17.5 -32.5
q0 -38 39 -38q15 0 32 5.5t25 9.5zM417.5 140.5q34.5 20.5 54.5 56t20 78.5q0 44 -20 79.5t-54.5 56t-76.5 20.5q-70 0 -110.5 -43.5t-40.5 -112.5q0 -67 41.5 -111t109.5 -44q42 0 76.5 20.5z" />
    <glyph glyph-name="Cacute" unicode="&#x106;" horiz-adv-x="809" 
d="M632.5 41q-92.5 -55 -201.5 -55q-107 0 -197.5 51t-143.5 138t-53 190q0 102 53 189t143.5 138t197.5 51q108 0 201 -54.5t146 -145.5l-147 -57q-35 50 -88.5 82t-111.5 32q-64 0 -118 -32.5t-85.5 -86.5t-31.5 -116t31.5 -116.5t85.5 -87t118 -32.5q58 0 111.5 32.5
t88.5 83.5l147 -57q-53 -92 -145.5 -147zM588 901l-149 -108h-119l132 164z" />
    <glyph glyph-name="cacute" unicode="&#x107;" horiz-adv-x="650" 
d="M193 24.5q-69 38.5 -109.5 104.5t-40.5 144t40.5 143.5t109 104t149.5 38.5q87 0 157.5 -41.5t112.5 -118.5l-135 -53q-24 41 -59 61.5t-76 20.5q-65 0 -107.5 -44t-42.5 -111t43 -111t108 -44q90 0 139 80l127 -50q-79 -162 -266 -162q-81 0 -150 38.5zM517 720
l-149 -108h-119l132 164z" />
    <glyph glyph-name="Ccaron" unicode="&#x10c;" horiz-adv-x="809" 
d="M632.5 41q-92.5 -55 -201.5 -55q-107 0 -197.5 51t-143.5 138t-53 190q0 102 53 189t143.5 138t197.5 51q108 0 201 -54.5t146 -145.5l-147 -57q-35 50 -88.5 82t-111.5 32q-64 0 -118 -32.5t-85.5 -86.5t-31.5 -116t31.5 -116.5t85.5 -87t118 -32.5q58 0 111.5 32.5
t88.5 83.5l147 -57q-53 -92 -145.5 -147zM358 793l-137 166h134l69 -65l63 65h134l-136 -166h-127z" />
    <glyph glyph-name="ccaron" unicode="&#x10d;" horiz-adv-x="650" 
d="M193 24.5q-69 38.5 -109.5 104.5t-40.5 144t40.5 143.5t109 104t149.5 38.5q87 0 157.5 -41.5t112.5 -118.5l-135 -53q-24 41 -59 61.5t-76 20.5q-65 0 -107.5 -44t-42.5 -111t43 -111t108 -44q90 0 139 80l127 -50q-79 -162 -266 -162q-81 0 -150 38.5zM277 612
l-137 166h134l69 -65l63 65h134l-136 -166h-127z" />
    <glyph glyph-name="Dcaron" unicode="&#x10e;" horiz-adv-x="817" 
d="M78 731h302q163 0 267 -92q56 -49 85 -118.5t29 -154.5q0 -83 -30 -154.5t-84 -120.5q-50 -44 -118.5 -67.5t-148.5 -23.5h-302v731zM380 137q94 0 157.5 49t63.5 179t-64 179t-157 49h-144v-456h144zM288 793l-137 166h134l69 -65l63 65h134l-136 -166h-127z" />
    <glyph glyph-name="dcaron" unicode="&#x10f;" horiz-adv-x="789" 
d="M486 55q-19 -26 -65.5 -46.5t-101.5 -20.5q-85 0 -147.5 38t-95.5 103.5t-33 145.5t33 145.5t95.5 103.5t147.5 38q57 0 100.5 -19.5t66.5 -49.5v263h148v-756h-148v55zM451 387.5q-41 43.5 -110 43.5q-70 0 -110.5 -43.5t-40.5 -112.5q0 -67 41.5 -111t109.5 -44
q70 0 110.5 41.5t40.5 113.5q0 69 -41 112.5zM833 641q0 -55 -38 -103.5t-102 -62.5l-24 49q59 20 70 61q-32 1 -52.5 23t-21.5 53q-2 34 22 58.5t59 24.5q30 0 52.5 -17.5t30.5 -48.5q4 -15 4 -37z" />
    <glyph glyph-name="Dcroat" unicode="&#x110;" horiz-adv-x="848" 
d="M108 294h-82v136h82v301h303q161 0 267 -92q55 -49 84 -118.5t29 -154.5q0 -83 -29.5 -154.5t-83.5 -120.5q-51 -44 -119.5 -67.5t-147.5 -23.5h-303v294zM267 294v-157h144q94 0 157.5 49t63.5 179t-64 179t-157 49h-144v-163h128v-136h-128z" />
    <glyph glyph-name="dcroat" unicode="&#x111;" 
d="M634 588v-588h-148v44q-30 -25 -71.5 -41.5t-88.5 -16.5q-88 0 -152 38t-97.5 103.5t-33.5 146.5q0 80 33.5 145t97.5 103t152 38q51 0 92 -15.5t68 -40.5v84h-88v114h88v54h148v-54h52v-114h-52zM472 352q-20 35 -54.5 55.5t-76.5 20.5q-68 0 -109.5 -44t-41.5 -110
q0 -70 40.5 -113.5t110.5 -43.5q42 0 76.5 20.5t54.5 56.5t20 80q0 43 -20 78z" />
    <glyph glyph-name="Emacron" unicode="&#x112;" horiz-adv-x="700" 
d="M235 431h350v-138h-350v-156h396v-137h-554v731h554v-137h-396v-163zM209 794v106h329v-106h-329z" />
    <glyph glyph-name="emacron" unicode="&#x113;" horiz-adv-x="681" 
d="M209.5 13q-68.5 27 -117.5 91.5t-49 168.5t49.5 168t118.5 91t131 27q72 0 137 -32t106.5 -94t43.5 -147q0 -26 -1 -45t-2 -24h-434q12 -58 60 -79t90 -21q54 0 86 19.5t55 44.5l116 -67q-94 -128 -257 -128q-64 0 -132.5 27zM240 397.5q-39 -30.5 -44 -74.5h275
q-3 26 -20 50t-45.5 39.5t-64.5 15.5q-62 0 -101 -30.5zM177 613v106h329v-106h-329z" />
    <glyph glyph-name="Edotaccent" unicode="&#x116;" horiz-adv-x="700" 
d="M235 431h350v-138h-350v-156h396v-137h-554v731h554v-137h-396v-163zM307.5 910q22.5 22 55.5 22t54.5 -22t21.5 -53q0 -32 -21.5 -52.5t-54.5 -20.5q-34 0 -56 20.5t-22 52.5q0 31 22.5 53z" />
    <glyph glyph-name="edotaccent" unicode="&#x117;" horiz-adv-x="681" 
d="M209.5 13q-68.5 27 -117.5 91.5t-49 168.5t49.5 168t118.5 91t131 27q72 0 137 -32t106.5 -94t43.5 -147q0 -26 -1 -45t-2 -24h-434q12 -58 60 -79t90 -21q54 0 86 19.5t55 44.5l116 -67q-94 -128 -257 -128q-64 0 -132.5 27zM240 397.5q-39 -30.5 -44 -74.5h275
q-3 26 -20 50t-45.5 39.5t-64.5 15.5q-62 0 -101 -30.5zM288.5 735q22.5 22 55.5 22t54.5 -22t21.5 -53q0 -32 -21.5 -52.5t-54.5 -20.5q-34 0 -56 20.5t-22 52.5q0 31 22.5 53z" />
    <glyph glyph-name="Eogonek" unicode="&#x118;" horiz-adv-x="700" 
d="M672 -162q-7 -3 -28 -10.5t-41 -10.5q-10 -2 -32 -2q-58 0 -101 31.5t-43 86.5q0 42 18 67h-368v731h554v-137h-396v-163h350v-138h-350v-156h396v-137h-35q-25 0 -45.5 -12.5t-19.5 -34.5q3 -35 40 -35q26 0 56 15z" />
    <glyph glyph-name="eogonek" unicode="&#x119;" horiz-adv-x="681" 
d="M628 241q-1 -19 -2 -24h-434q12 -58 60 -79t90 -21q54 0 86 19.5t55 44.5l116 -67q-87 -120 -238 -128q-12 -2 -20 -11t-8 -24q0 -14 9.5 -24t25.5 -11t34.5 5t28.5 12l45 -95q-7 -3 -28 -10.5t-41 -10.5q-10 -2 -32 -2q-58 0 -101 31.5t-43 86.5q0 38 21 66
q-88 24 -148.5 90.5t-60.5 183.5q0 104 49.5 168t118.5 91t131 27q72 0 137 -32t106.5 -94t43.5 -147q0 -26 -1 -45zM471 323q-3 26 -20 50t-45.5 39.5t-64.5 15.5q-62 0 -101 -30.5t-44 -74.5h275z" />
    <glyph glyph-name="Ecaron" unicode="&#x11a;" horiz-adv-x="700" 
d="M235 431h350v-138h-350v-156h396v-137h-554v731h554v-137h-396v-163zM288 793l-137 166h134l69 -65l63 65h134l-136 -166h-127z" />
    <glyph glyph-name="ecaron" unicode="&#x11b;" horiz-adv-x="681" 
d="M209.5 13q-68.5 27 -117.5 91.5t-49 168.5t49.5 168t118.5 91t131 27q72 0 137 -32t106.5 -94t43.5 -147q0 -26 -1 -45t-2 -24h-434q12 -58 60 -79t90 -21q54 0 86 19.5t55 44.5l116 -67q-94 -128 -257 -128q-64 0 -132.5 27zM240 397.5q-39 -30.5 -44 -74.5h275
q-3 26 -20 50t-45.5 39.5t-64.5 15.5q-62 0 -101 -30.5zM275 612l-137 166h134l69 -65l63 65h134l-136 -166h-127z" />
    <glyph glyph-name="Gbreve" unicode="&#x11e;" horiz-adv-x="861" 
d="M815 348q0 -12 -2 -42q-8 -92 -61.5 -165t-138 -114t-182.5 -41q-107 0 -197.5 51t-143.5 138t-53 190q0 102 53 189.5t143.5 138.5t197.5 51q101 0 188.5 -47.5t142.5 -128.5l-136 -79q-36 49 -87 80t-108 31q-64 0 -118.5 -32.5t-86.5 -86.5t-32 -116t32 -116.5
t86.5 -87t118.5 -32.5q46 0 91 18.5t78 50.5t44 70h-273v139h442q2 -40 2 -59zM567 831q-53 -45 -129 -45q-77 0 -131 45.5t-66 119.5h108q9 -32 33.5 -47t55.5 -15q35 0 56.5 17t30.5 45h107q-12 -75 -65 -120z" />
    <glyph glyph-name="gbreve" unicode="&#x11f;" 
d="M560.5 -138.5q-73.5 -68.5 -204.5 -68.5q-157 0 -263 83l73 106q34 -27 80.5 -44t98.5 -17q141 0 141 128v9q-60 -49 -154 -49q-87 0 -153 36.5t-101 99.5t-35 139q0 77 35 139.5t100.5 99.5t153.5 37q94 0 154 -49v39h148v-501q0 -119 -73.5 -187.5zM417.5 154.5
q34.5 19.5 54.5 54t20 75.5q0 42 -20 76t-54.5 53.5t-76.5 19.5q-68 0 -109.5 -42.5t-41.5 -106.5q0 -66 40.5 -107.5t110.5 -41.5q42 0 76.5 19.5zM491 654q-53 -45 -129 -45q-77 0 -131 45.5t-66 119.5h108q9 -32 33.5 -47t55.5 -15q35 0 56.5 17t30.5 45h107
q-12 -75 -65 -120z" />
    <glyph glyph-name="uni0122" unicode="&#x122;" horiz-adv-x="861" 
d="M815 348q0 -12 -2 -42q-8 -92 -61.5 -165t-138 -114t-182.5 -41q-107 0 -197.5 51t-143.5 138t-53 190q0 102 53 189.5t143.5 138.5t197.5 51q101 0 188.5 -47.5t142.5 -128.5l-136 -79q-36 49 -87 80t-108 31q-64 0 -118.5 -32.5t-86.5 -86.5t-32 -116t32 -116.5
t86.5 -87t118.5 -32.5q46 0 91 18.5t78 50.5t44 70h-273v139h442q2 -40 2 -59zM517 -141q0 -55 -38 -103.5t-102 -62.5l-24 49q59 20 70 61q-32 1 -52.5 23t-21.5 53q-2 34 22 58.5t59 24.5q30 0 52.5 -17.5t30.5 -48.5q4 -15 4 -37z" />
    <glyph glyph-name="uni0123" unicode="&#x123;" 
d="M265 714q0 55 38 103.5t102 62.5l24 -49q-59 -20 -70 -61q32 -1 52.5 -23t21.5 -53q2 -34 -22 -58.5t-59 -24.5q-30 0 -52.5 17.5t-30.5 48.5q-4 15 -4 37zM560.5 -138.5q-73.5 -68.5 -204.5 -68.5q-157 0 -263 83l73 106q34 -27 80.5 -44t98.5 -17q141 0 141 128v9
q-60 -49 -154 -49q-87 0 -153 36.5t-101 99.5t-35 139q0 77 35 139.5t100.5 99.5t153.5 37q94 0 154 -49v39h148v-501q0 -119 -73.5 -187.5zM417.5 154.5q34.5 19.5 54.5 54t20 75.5q0 42 -20 76t-54.5 53.5t-76.5 19.5q-68 0 -109.5 -42.5t-41.5 -106.5q0 -66 40.5 -107.5
t110.5 -41.5q42 0 76.5 19.5z" />
    <glyph glyph-name="Imacron" unicode="&#x12a;" horiz-adv-x="354" 
d="M96 0v731h158v-731h-158zM9 794v106h329v-106h-329z" />
    <glyph glyph-name="imacron" unicode="&#x12b;" horiz-adv-x="305" 
d="M-14 613v106h329v-106h-329zM76 549h150v-549h-150v549z" />
    <glyph glyph-name="Iogonek" unicode="&#x12e;" horiz-adv-x="354" 
d="M326 -162q-7 -3 -28 -10.5t-41 -10.5q-10 -2 -32 -2q-26 0 -53 8.5t-45 22.5q-44 35 -44 90q0 37 13 64v731h158v-731h-10q-24 0 -41.5 -11.5t-17.5 -32.5q0 -38 39 -38q15 0 32 5.5t25 9.5z" />
    <glyph glyph-name="iogonek" unicode="&#x12f;" horiz-adv-x="305" 
d="M91.5 631.5q-24.5 23.5 -24.5 57.5q0 33 24.5 56.5t59.5 23.5q34 0 58 -23.5t24 -56.5q0 -34 -24 -57.5t-58 -23.5q-35 0 -59.5 23.5zM306 -162q-7 -3 -28 -10.5t-41 -10.5q-10 -2 -32 -2q-26 0 -53 8.5t-45 22.5q-44 35 -44 90q0 37 13 64v549h150v-549h-2
q-24 0 -41.5 -11.5t-17.5 -32.5q0 -38 39 -38q15 0 32 5.5t25 9.5z" />
    <glyph glyph-name="Idotaccent" unicode="&#x130;" horiz-adv-x="354" 
d="M236.5 915q-25.5 25 -60.5 25q-36 0 -62 -25t-26 -59q0 -35 26 -60t62 -25q35 0 60.5 25t25.5 60q0 34 -25.5 59zM96 0v731h158v-731h-158z" />
    <glyph glyph-name="dotlessi" unicode="&#x131;" horiz-adv-x="305" 
d="M76 549h150v-549h-150v549z" />
    <glyph glyph-name="uni0136" unicode="&#x136;" horiz-adv-x="751" 
d="M236 0h-158v731h158v-305l285 305h196l-301 -310l314 -421h-194l-229 311l-71 -74v-237zM463 -141q0 -55 -38 -103.5t-102 -62.5l-24 49q59 20 70 61q-32 1 -52.5 23t-21.5 53q-2 34 22 58.5t59 24.5q30 0 52.5 -17.5t30.5 -48.5q4 -15 4 -37z" />
    <glyph glyph-name="uni0137" unicode="&#x137;" horiz-adv-x="619" 
d="M220 756v-440l187 231h183l-221 -256l230 -291h-181l-144 180l-54 -62v-118h-150v756h150zM405 -141q0 -55 -38 -103.5t-102 -62.5l-24 49q59 20 70 61q-32 1 -52.5 23t-21.5 53q-2 34 22 58.5t59 24.5q30 0 52.5 -17.5t30.5 -48.5q4 -15 4 -37z" />
    <glyph glyph-name="Lacute" unicode="&#x139;" horiz-adv-x="638" 
d="M619 0h-542v731h159v-594h383v-137zM357 901l-149 -108h-119l132 164z" />
    <glyph glyph-name="lacute" unicode="&#x13a;" horiz-adv-x="294" 
d="M70 756h150v-756h-150v756zM342 901l-149 -108h-119l132 164z" />
    <glyph glyph-name="uni013B" unicode="&#x13b;" horiz-adv-x="638" 
d="M619 0h-542v731h159v-594h383v-137zM432 -141q0 -55 -38 -103.5t-102 -62.5l-24 49q59 20 70 61q-32 1 -52.5 23t-21.5 53q-2 34 22 58.5t59 24.5q30 0 52.5 -17.5t30.5 -48.5q4 -15 4 -37z" />
    <glyph glyph-name="uni013C" unicode="&#x13c;" horiz-adv-x="294" 
d="M70 756h150v-756h-150v756zM232 -141q0 -55 -38 -103.5t-102 -62.5l-24 49q59 20 70 61q-32 1 -52.5 23t-21.5 53q-2 34 22 58.5t59 24.5q30 0 52.5 -17.5t30.5 -48.5q4 -15 4 -37z" />
    <glyph glyph-name="Lcaron" unicode="&#x13d;" horiz-adv-x="638" 
d="M619 0h-542v731h159v-594h383v-137zM467 641q0 -55 -38 -103.5t-102 -62.5l-24 49q59 20 70 61q-32 1 -52.5 23t-21.5 53q-2 34 22 58.5t59 24.5q30 0 52.5 -17.5t30.5 -48.5q4 -15 4 -37z" />
    <glyph glyph-name="lcaron" unicode="&#x13e;" horiz-adv-x="420" 
d="M96 0v731h158v-731h-158zM453 641q0 -55 -38 -103.5t-102 -62.5l-24 49q59 20 70 61q-32 1 -52.5 23t-21.5 53q-2 34 22 58.5t59 24.5q30 0 52.5 -17.5t30.5 -48.5q4 -15 4 -37z" />
    <glyph glyph-name="Lslash" unicode="&#x141;" horiz-adv-x="679" 
d="M118 731h159v-268l226 124v-153l-226 -123v-174h383v-137h-542v226l-92 -49v151l92 49v354z" />
    <glyph glyph-name="lslash" unicode="&#x142;" horiz-adv-x="316" 
d="M230 0h-150v343l-53 -29v152l53 29v242h150v-158l56 31v-153l-56 -31v-426z" />
    <glyph glyph-name="Nacute" unicode="&#x143;" horiz-adv-x="828" 
d="M235 0h-157v754l504 -446v422h158v-753l-505 439v-416zM572 901l-149 -108h-119l132 164z" />
    <glyph glyph-name="nacute" unicode="&#x144;" horiz-adv-x="658" 
d="M529.5 499q51.5 -61 51.5 -174v-325h-153v325q0 111 -106 111q-41 0 -74 -32.5t-31 -112.5v-291h-149v550h149v-49q27 27 68 43t79 16q114 0 165.5 -61zM486 720l-149 -108h-119l132 164z" />
    <glyph glyph-name="uni0145" unicode="&#x145;" horiz-adv-x="828" 
d="M235 0h-157v754l504 -446v422h158v-753l-505 439v-416zM518 -141q0 -55 -38 -103.5t-102 -62.5l-24 49q59 20 70 61q-32 1 -52.5 23t-21.5 53q-2 34 22 58.5t59 24.5q30 0 52.5 -17.5t30.5 -48.5q4 -15 4 -37z" />
    <glyph glyph-name="uni0146" unicode="&#x146;" horiz-adv-x="658" 
d="M529.5 499q51.5 -61 51.5 -174v-325h-153v325q0 111 -106 111q-41 0 -74 -32.5t-31 -112.5v-291h-149v550h149v-49q27 27 68 43t79 16q114 0 165.5 -61zM408 -141q0 -55 -38 -103.5t-102 -62.5l-24 49q59 20 70 61q-32 1 -52.5 23t-21.5 53q-2 34 22 58.5t59 24.5
q30 0 52.5 -17.5t30.5 -48.5q4 -15 4 -37z" />
    <glyph glyph-name="Ncaron" unicode="&#x147;" horiz-adv-x="828" 
d="M235 0h-157v754l504 -446v422h158v-753l-505 439v-416zM345 793l-137 166h134l69 -65l63 65h134l-136 -166h-127z" />
    <glyph glyph-name="ncaron" unicode="&#x148;" horiz-adv-x="658" 
d="M529.5 499q51.5 -61 51.5 -174v-325h-153v325q0 111 -106 111q-41 0 -74 -32.5t-31 -112.5v-291h-149v550h149v-49q27 27 68 43t79 16q114 0 165.5 -61zM255 612l-137 166h134l69 -65l63 65h134l-136 -166h-127z" />
    <glyph glyph-name="Omacron" unicode="&#x14c;" horiz-adv-x="880" 
d="M237 37q-90 51 -143 138.5t-53 190.5q0 102 53 189.5t143 138.5t197 51t198 -51t144 -138.5t53 -189.5q0 -103 -53 -190.5t-144 -138.5t-198 -51t-197 51zM316 568.5q-54 -32.5 -86 -86.5t-32 -116t32 -116.5t86 -87.5t118 -33t118.5 33t86 87.5t31.5 116.5t-31.5 116
t-86 86.5t-118.5 32.5t-118 -32.5zM268 794v106h329v-106h-329z" />
    <glyph glyph-name="omacron" unicode="&#x14d;" horiz-adv-x="694" 
d="M191.5 25.5q-68.5 38.5 -108.5 104.5t-40 144q0 77 40 143t108.5 104.5t149.5 38.5t150 -38.5t109.5 -104.5t40.5 -143q0 -78 -40.5 -144t-109.5 -104.5t-150 -38.5t-149.5 38.5zM265 408.5q-35 -20.5 -55 -56t-20 -78.5q0 -45 19.5 -80.5t54 -56t77.5 -20.5
q42 0 76.5 20.5t54.5 56.5t20 80q0 43 -20 78.5t-54.5 56t-76.5 20.5q-41 0 -76 -20.5zM177 613v106h329v-106h-329z" />
    <glyph glyph-name="Ohungarumlaut" unicode="&#x150;" horiz-adv-x="880" 
d="M237 37q-90 51 -143 138.5t-53 190.5q0 102 53 189.5t143 138.5t197 51t198 -51t144 -138.5t53 -189.5q0 -103 -53 -190.5t-144 -138.5t-198 -51t-197 51zM316 568.5q-54 -32.5 -86 -86.5t-32 -116t32 -116.5t86 -87.5t118 -33t118.5 33t86 87.5t31.5 116.5t-31.5 116
t-86 86.5t-118.5 32.5t-118 -32.5zM516 901l-143 -108h-116l134 164zM707 901l-142 -108h-115l132 164z" />
    <glyph glyph-name="ohungarumlaut" unicode="&#x151;" horiz-adv-x="694" 
d="M191.5 25.5q-68.5 38.5 -108.5 104.5t-40 144q0 77 40 143t108.5 104.5t149.5 38.5t150 -38.5t109.5 -104.5t40.5 -143q0 -78 -40.5 -144t-109.5 -104.5t-150 -38.5t-149.5 38.5zM265 408.5q-35 -20.5 -55 -56t-20 -78.5q0 -45 19.5 -80.5t54 -56t77.5 -20.5
q42 0 76.5 20.5t54.5 56.5t20 80q0 43 -20 78.5t-54.5 56t-76.5 20.5q-41 0 -76 -20.5zM418 719l-143 -108h-116l134 164zM609 719l-142 -108h-115l132 164z" />
    <glyph glyph-name="OE" unicode="&#x152;" horiz-adv-x="1206" 
d="M723 431h360v-140h-360v-152h405v-139h-563v8q-60 -22 -128 -22q-107 0 -197.5 51.5t-143.5 138.5t-53 190q0 102 53 189.5t143.5 138.5t197.5 51q65 0 128 -22v8h563v-138h-405v-162zM513.5 137.5q29.5 13.5 51.5 36.5v384q-41 49 -128 49q-67 0 -120.5 -28t-84.5 -82.5
t-31 -130.5q0 -74 31.5 -128.5t85 -84t119.5 -29.5q47 0 76.5 13.5z" />
    <glyph glyph-name="oe" unicode="&#x153;" horiz-adv-x="1120" 
d="M662.5 9q-60.5 23 -102.5 73q-42 -45 -98 -70t-121 -25q-81 0 -149.5 38.5t-108.5 104.5t-40 144q0 77 40 143t108.5 104.5t149.5 38.5q65 0 121.5 -26t98.5 -71q43 50 103.5 73t116.5 23q72 0 137 -32t106.5 -94t43.5 -147q0 -26 -1 -45t-2 -24h-434q12 -58 60 -79
t90 -21q54 0 86 19.5t55 44.5l116 -67q-94 -128 -257 -128q-58 0 -118.5 23zM265 408.5q-35 -20.5 -55 -56t-20 -78.5q0 -45 19.5 -80.5t54 -56t77.5 -20.5q42 0 76.5 20.5t54.5 56.5t20 80q0 43 -20 78.5t-54.5 56t-76.5 20.5q-41 0 -76 -20.5zM683 399.5
q-38 -28.5 -48 -68.5h275q-9 39 -43 68t-86 29q-60 0 -98 -28.5z" />
    <glyph glyph-name="Racute" unicode="&#x154;" horiz-adv-x="729" 
d="M78 0v731h325q78 0 138 -32t93 -90t33 -132q0 -79 -40 -141t-109 -91q71 -90 189 -245h-189q-64 80 -175 228h-108v-228h-157zM403 365q41 0 74 29.5t33 82.5q0 43 -23 80t-84 37h-168v-229h168zM518 901l-149 -108h-119l132 164z" />
    <glyph glyph-name="racute" unicode="&#x155;" horiz-adv-x="424" 
d="M331 406.5q-43 -10.5 -79 -49.5t-36 -114v-243h-149v550h149v-73q37 49 90.5 66.5t97.5 16.5v-146q-30 3 -73 -7.5zM349 720l-149 -108h-119l132 164z" />
    <glyph glyph-name="uni0156" unicode="&#x156;" horiz-adv-x="729" 
d="M78 0v731h325q78 0 138 -32t93 -90t33 -132q0 -79 -40 -141t-109 -91q71 -90 189 -245h-189q-64 80 -175 228h-108v-228h-157zM403 365q41 0 74 29.5t33 82.5q0 43 -23 80t-84 37h-168v-229h168zM446 -141q0 -55 -38 -103.5t-102 -62.5l-24 49q59 20 70 61
q-32 1 -52.5 23t-21.5 53q-2 34 22 58.5t59 24.5q30 0 52.5 -17.5t30.5 -48.5q4 -15 4 -37z" />
    <glyph glyph-name="uni0157" unicode="&#x157;" horiz-adv-x="424" 
d="M331 406.5q-43 -10.5 -79 -49.5t-36 -114v-243h-149v550h149v-73q37 49 90.5 66.5t97.5 16.5v-146q-30 3 -73 -7.5zM225 -141q0 -55 -38 -103.5t-102 -62.5l-24 49q59 20 70 61q-32 1 -52.5 23t-21.5 53q-2 34 22 58.5t59 24.5q30 0 52.5 -17.5t30.5 -48.5q4 -15 4 -37z
" />
    <glyph glyph-name="Rcaron" unicode="&#x158;" horiz-adv-x="729" 
d="M78 0v731h325q78 0 138 -32t93 -90t33 -132q0 -79 -40 -141t-109 -91q71 -90 189 -245h-189q-64 80 -175 228h-108v-228h-157zM403 365q41 0 74 29.5t33 82.5q0 43 -23 80t-84 37h-168v-229h168zM274 793l-137 166h134l69 -65l63 65h134l-136 -166h-127z" />
    <glyph glyph-name="rcaron" unicode="&#x159;" horiz-adv-x="424" 
d="M331 406.5q-43 -10.5 -79 -49.5t-36 -114v-243h-149v550h149v-73q37 49 90.5 66.5t97.5 16.5v-146q-30 3 -73 -7.5zM153 612l-137 166h134l69 -65l63 65h134l-136 -166h-127z" />
    <glyph glyph-name="Sacute" unicode="&#x15a;" horiz-adv-x="707" 
d="M243 156.5q71 -28.5 130 -28.5q62 0 98.5 24t36.5 57q0 27 -21.5 44t-54.5 25.5t-87 18.5q-72 12 -132 31t-109 66t-49 127q0 118 86.5 169.5t203.5 51.5q90 0 156.5 -24.5t132.5 -73.5l-88 -120q-49 35 -102 55t-105 20q-46 0 -86 -16.5t-40 -55.5q0 -24 20.5 -38.5
t45 -21t79.5 -18.5l36 -7q83 -16 137.5 -35.5t94.5 -65.5t40 -128q0 -111 -78.5 -169t-212.5 -58q-196 0 -330 114l84 121q43 -36 114 -64.5zM520 901l-149 -108h-119l132 164z" />
    <glyph glyph-name="sacute" unicode="&#x15b;" horiz-adv-x="572" 
d="M38 73l78 104q36 -25 84 -42t94 -17q34 0 56.5 14t22.5 35t-25.5 29.5t-49.5 12t-31 4.5q-60 10 -103.5 24t-79 50t-35.5 99q0 104 75.5 139t151.5 35q65 0 120 -19t109 -60l-78 -102q-39 23 -77 37t-79 14q-25 0 -48.5 -11t-23.5 -30q0 -24 32.5 -34t71.5 -15
q70 -12 112 -25t74.5 -48.5t32.5 -100.5q0 -86 -59 -132.5t-167 -46.5q-150 0 -258 86zM458 720l-149 -108h-119l132 164z" />
    <glyph glyph-name="Scedilla" unicode="&#x15e;" horiz-adv-x="707" 
d="M594 49q-72 -58 -196 -63l-12 -24q13 0 31 -5q27 -7 42 -29t15 -50q0 -57 -36.5 -76.5t-75.5 -19.5q-27 0 -48 8t-32.5 15.5t-14.5 10.5l28 49q3 -1 14 -6t22 -7t24 -2q15 0 22.5 5.5t7.5 15.5q0 22 -34 22q-16 0 -31 -6t-19 -7l-17 28l32 81q-159 14 -271 111l84 121
q43 -36 114 -64.5t130 -28.5q62 0 98.5 24t36.5 57q0 27 -21.5 44t-54.5 25.5t-87 18.5q-72 12 -132 31t-109 66t-49 127q0 118 86.5 169.5t203.5 51.5q90 0 156.5 -24.5t132.5 -73.5l-88 -120q-49 35 -102 55t-105 20q-46 0 -86 -16.5t-40 -55.5q0 -24 20.5 -38.5t45 -21
t79.5 -18.5l36 -7q83 -16 137.5 -35.5t94.5 -65.5t40 -128q0 -106 -72 -164z" />
    <glyph glyph-name="scedilla" unicode="&#x15f;" horiz-adv-x="572" 
d="M471 40.5q-51 -46.5 -145 -52.5l-13 -26q13 0 31 -5q27 -7 42 -29t15 -50q0 -57 -36.5 -76.5t-75.5 -19.5q-27 0 -48 8t-32.5 15.5t-14.5 10.5l28 49q3 -1 14 -6t22 -7t24 -2q15 0 22.5 5.5t7.5 15.5q0 22 -34 22q-16 0 -31 -6t-19 -7l-17 28l33 82q-117 12 -206 83
l78 104q36 -25 84 -42t94 -17q34 0 56.5 14t22.5 35t-25.5 29.5t-49.5 12t-31 4.5q-60 10 -103.5 24t-79 50t-35.5 99q0 104 75.5 139t151.5 35q65 0 120 -19t109 -60l-78 -102q-39 23 -77 37t-79 14q-25 0 -48.5 -11t-23.5 -30q0 -24 32.5 -34t71.5 -15q70 -12 112 -25
t74.5 -48.5t32.5 -100.5q0 -79 -51 -125.5z" />
    <glyph glyph-name="Scaron" unicode="&#x160;" horiz-adv-x="707" 
d="M243 156.5q71 -28.5 130 -28.5q62 0 98.5 24t36.5 57q0 27 -21.5 44t-54.5 25.5t-87 18.5q-72 12 -132 31t-109 66t-49 127q0 118 86.5 169.5t203.5 51.5q90 0 156.5 -24.5t132.5 -73.5l-88 -120q-49 35 -102 55t-105 20q-46 0 -86 -16.5t-40 -55.5q0 -24 20.5 -38.5
t45 -21t79.5 -18.5l36 -7q83 -16 137.5 -35.5t94.5 -65.5t40 -128q0 -111 -78.5 -169t-212.5 -58q-196 0 -330 114l84 121q43 -36 114 -64.5zM291 793l-137 166h134l69 -65l63 65h134l-136 -166h-127z" />
    <glyph glyph-name="scaron" unicode="&#x161;" horiz-adv-x="572" 
d="M38 73l78 104q36 -25 84 -42t94 -17q34 0 56.5 14t22.5 35t-25.5 29.5t-49.5 12t-31 4.5q-60 10 -103.5 24t-79 50t-35.5 99q0 104 75.5 139t151.5 35q65 0 120 -19t109 -60l-78 -102q-39 23 -77 37t-79 14q-25 0 -48.5 -11t-23.5 -30q0 -24 32.5 -34t71.5 -15
q70 -12 112 -25t74.5 -48.5t32.5 -100.5q0 -86 -59 -132.5t-167 -46.5q-150 0 -258 86zM216 612l-137 166h134l69 -65l63 65h134l-136 -166h-127z" />
    <glyph glyph-name="uni0162" unicode="&#x162;" horiz-adv-x="647" 
d="M416 594v-594h-159v594h-213v137h584v-137h-212zM421 -141q0 -55 -38 -103.5t-102 -62.5l-24 49q59 20 70 61q-32 1 -52.5 23t-21.5 53q-2 34 22 58.5t59 24.5q30 0 52.5 -17.5t30.5 -48.5q4 -15 4 -37z" />
    <glyph glyph-name="uni0163" unicode="&#x163;" horiz-adv-x="410" 
d="M254 196q0 -35 12 -58.5t56 -23.5q20 0 38 2v-126q-36 -4 -67 -4q-64 0 -103.5 10.5t-61.5 40.5t-22 86v305h-67v131h67v147h148v-147h110v-131h-110v-232zM299 -141q0 -55 -38 -103.5t-102 -62.5l-24 49q59 20 70 61q-32 1 -52.5 23t-21.5 53q-2 34 22 58.5t59 24.5
q30 0 52.5 -17.5t30.5 -48.5q4 -15 4 -37z" />
    <glyph glyph-name="Tcaron" unicode="&#x164;" horiz-adv-x="647" 
d="M416 594v-594h-159v594h-213v137h584v-137h-212zM274 793l-137 166h134l69 -65l63 65h134l-136 -166h-127z" />
    <glyph glyph-name="tcaron" unicode="&#x165;" horiz-adv-x="497" 
d="M254 196q0 -35 12 -58.5t56 -23.5q20 0 38 2v-126q-36 -4 -67 -4q-64 0 -103.5 10.5t-61.5 40.5t-22 86v305h-67v131h67v147h148v-147h110v-131h-110v-232zM541 641q0 -55 -38 -103.5t-102 -62.5l-24 49q59 20 70 61q-32 1 -52.5 23t-21.5 53q-2 34 22 58.5t59 24.5
q30 0 52.5 -17.5t30.5 -48.5q4 -15 4 -37z" />
    <glyph glyph-name="Umacron" unicode="&#x16a;" horiz-adv-x="820" 
d="M233 25q-74 38 -114.5 108t-40.5 163v434h158v-434q0 -64 27.5 -102.5t66 -54.5t76.5 -16q37 0 75.5 16t65.5 54.5t27 102.5v434h158v-434q0 -93 -40 -163t-114 -108t-172 -38q-99 0 -173 38zM237 794v106h329v-106h-329z" />
    <glyph glyph-name="umacron" unicode="&#x16b;" horiz-adv-x="658" 
d="M68 223v325h151v-325q0 -59 29.5 -84.5t77.5 -25.5q42 0 75 32.5t30 111.5v291h150v-548h-150v47q-27 -28 -65.5 -43.5t-81.5 -15.5q-216 0 -216 235zM153 613v106h329v-106h-329z" />
    <glyph glyph-name="Uring" unicode="&#x16e;" horiz-adv-x="820" 
d="M233 25q-74 38 -114.5 108t-40.5 163v434h158v-434q0 -64 27.5 -102.5t66 -54.5t76.5 -16q37 0 75.5 16t65.5 54.5t27 102.5v434h158v-434q0 -93 -40 -163t-114 -108t-172 -38q-99 0 -173 38zM322.5 824.5q-34.5 33.5 -34.5 80.5q0 46 34.5 79t82.5 33q49 0 83.5 -33
t34.5 -79q0 -47 -34.5 -80.5t-83.5 -33.5q-48 0 -82.5 33.5zM381.5 927q-9.5 -9 -9.5 -22q0 -14 9.5 -23t23.5 -9t24 9t10 23q0 13 -10 22t-24 9t-23.5 -9z" />
    <glyph glyph-name="uring" unicode="&#x16f;" horiz-adv-x="658" 
d="M68 223v325h151v-325q0 -59 29.5 -84.5t77.5 -25.5q42 0 75 32.5t30 111.5v291h150v-548h-150v47q-27 -28 -65.5 -43.5t-81.5 -15.5q-216 0 -216 235zM241.5 644.5q-34.5 33.5 -34.5 80.5q0 46 34.5 79t82.5 33q49 0 83.5 -33t34.5 -79q0 -47 -34.5 -80.5t-83.5 -33.5
q-48 0 -82.5 33.5zM300.5 747q-9.5 -9 -9.5 -22q0 -14 9.5 -23t23.5 -9t24 9t10 23q0 13 -10 22t-24 9t-23.5 -9z" />
    <glyph glyph-name="Uhungarumlaut" unicode="&#x170;" horiz-adv-x="820" 
d="M233 25q-74 38 -114.5 108t-40.5 163v434h158v-434q0 -64 27.5 -102.5t66 -54.5t76.5 -16q37 0 75.5 16t65.5 54.5t27 102.5v434h158v-434q0 -93 -40 -163t-114 -108t-172 -38q-99 0 -173 38zM484 901l-143 -108h-116l134 164zM675 901l-142 -108h-115l132 164z" />
    <glyph glyph-name="uhungarumlaut" unicode="&#x171;" horiz-adv-x="658" 
d="M68 223v325h151v-325q0 -59 29.5 -84.5t77.5 -25.5q42 0 75 32.5t30 111.5v291h150v-548h-150v47q-27 -28 -65.5 -43.5t-81.5 -15.5q-216 0 -216 235zM396 719l-143 -108h-116l134 164zM587 719l-142 -108h-115l132 164z" />
    <glyph glyph-name="Uogonek" unicode="&#x172;" horiz-adv-x="820" 
d="M732 730v-434q0 -89 -37 -157t-105.5 -107.5t-159.5 -43.5q-14 -2 -24 -11t-10 -27q0 -15 10 -24.5t28 -9.5q15 0 32.5 6t27.5 11l45 -95q-7 -3 -28 -10.5t-41 -10.5q-10 -2 -32 -2q-58 0 -101 31.5t-43 86.5q0 36 19 64q-109 24 -172 103.5t-63 195.5v434h158v-434
q0 -64 27.5 -102.5t66 -54.5t76.5 -16q37 0 75.5 16t65.5 54.5t27 102.5v434h158z" />
    <glyph glyph-name="uogonek" unicode="&#x173;" horiz-adv-x="658" 
d="M662 -150q-7 -3 -28 -10.5t-41 -10.5q-10 -2 -32 -2q-58 0 -101 31.5t-43 86.5q0 30 14 55v47q-27 -28 -65.5 -43.5t-81.5 -15.5q-216 0 -216 235v325h151v-325q0 -59 29.5 -84.5t77.5 -25.5q42 0 75 32.5t30 111.5v291h150v-548h-22q-15 0 -27.5 -9t-12.5 -29
q0 -15 10 -24.5t28 -9.5q15 0 32.5 6t27.5 11z" />
    <glyph glyph-name="Ydieresis" unicode="&#x178;" horiz-adv-x="734" 
d="M444 277v-277h-158v277l-288 453h185l182 -295l184 295h185zM206.5 910.5q22.5 21.5 55.5 21.5t54.5 -21.5t21.5 -52.5q0 -32 -21.5 -52.5t-54.5 -20.5t-55.5 21t-22.5 52t22.5 52.5zM413 910.5q22 21.5 55 21.5q32 0 55 -21.5t23 -52.5t-22.5 -52t-55.5 -21
q-34 0 -55.5 20.5t-21.5 52.5q0 31 22 52.5z" />
    <glyph glyph-name="Zacute" unicode="&#x179;" horiz-adv-x="730" 
d="M684 137v-137h-685l430 593h-380v137h670l-431 -593h396zM551 901l-149 -108h-119l132 164z" />
    <glyph glyph-name="zacute" unicode="&#x17a;" horiz-adv-x="566" 
d="M36 419v129h523l-300 -418h269v-130h-533l299 419h-258zM462 720l-149 -108h-119l132 164z" />
    <glyph glyph-name="Zdotaccent" unicode="&#x17b;" horiz-adv-x="730" 
d="M684 137v-137h-685l430 593h-380v137h670l-431 -593h396zM325.5 910q22.5 22 55.5 22t54.5 -22t21.5 -53q0 -32 -21.5 -52.5t-54.5 -20.5q-34 0 -56 20.5t-22 52.5q0 31 22.5 53z" />
    <glyph glyph-name="zdotaccent" unicode="&#x17c;" horiz-adv-x="566" 
d="M36 419v129h523l-300 -418h269v-130h-533l299 419h-258zM248.5 735q22.5 22 55.5 22t54.5 -22t21.5 -53q0 -32 -21.5 -52.5t-54.5 -20.5q-34 0 -56 20.5t-22 52.5q0 31 22.5 53z" />
    <glyph glyph-name="Zcaron" unicode="&#x17d;" horiz-adv-x="730" 
d="M684 137v-137h-685l430 593h-380v137h670l-431 -593h396zM310 793l-137 166h134l69 -65l63 65h134l-136 -166h-127z" />
    <glyph glyph-name="zcaron" unicode="&#x17e;" horiz-adv-x="566" 
d="M36 419v129h523l-300 -418h269v-130h-533l299 419h-258zM225 612l-137 166h134l69 -65l63 65h134l-136 -166h-127z" />
    <glyph glyph-name="uni0218" unicode="&#x218;" horiz-adv-x="707" 
d="M243 156.5q71 -28.5 130 -28.5q62 0 98.5 24t36.5 57q0 27 -21.5 44t-54.5 25.5t-87 18.5q-72 12 -132 31t-109 66t-49 127q0 118 86.5 169.5t203.5 51.5q90 0 156.5 -24.5t132.5 -73.5l-88 -120q-49 35 -102 55t-105 20q-46 0 -86 -16.5t-40 -55.5q0 -24 20.5 -38.5
t45 -21t79.5 -18.5l36 -7q83 -16 137.5 -35.5t94.5 -65.5t40 -128q0 -111 -78.5 -169t-212.5 -58q-196 0 -330 114l84 121q43 -36 114 -64.5zM455 -141q0 -55 -38 -103.5t-102 -62.5l-24 49q59 20 70 61q-32 1 -52.5 23t-21.5 53q-2 34 22 58.5t59 24.5q30 0 52.5 -17.5
t30.5 -48.5q4 -15 4 -37z" />
    <glyph glyph-name="uni0219" unicode="&#x219;" horiz-adv-x="572" 
d="M38 73l78 104q36 -25 84 -42t94 -17q34 0 56.5 14t22.5 35t-25.5 29.5t-49.5 12t-31 4.5q-60 10 -103.5 24t-79 50t-35.5 99q0 104 75.5 139t151.5 35q65 0 120 -19t109 -60l-78 -102q-39 23 -77 37t-79 14q-25 0 -48.5 -11t-23.5 -30q0 -24 32.5 -34t71.5 -15
q70 -12 112 -25t74.5 -48.5t32.5 -100.5q0 -86 -59 -132.5t-167 -46.5q-150 0 -258 86zM381 -141q0 -55 -38 -103.5t-102 -62.5l-24 49q59 20 70 61q-32 1 -52.5 23t-21.5 53q-2 34 22 58.5t59 24.5q30 0 52.5 -17.5t30.5 -48.5q4 -15 4 -37z" />
    <glyph glyph-name="uni021A" unicode="&#x21a;" horiz-adv-x="647" 
d="M416 594v-594h-159v594h-213v137h584v-137h-212zM422 -141q0 -55 -38 -103.5t-102 -62.5l-24 49q59 20 70 61q-32 1 -52.5 23t-21.5 53q-2 34 22 58.5t59 24.5q30 0 52.5 -17.5t30.5 -48.5q4 -15 4 -37z" />
    <glyph glyph-name="uni021B" unicode="&#x21b;" horiz-adv-x="410" 
d="M254 196q0 -35 12 -58.5t56 -23.5q20 0 38 2v-126q-36 -4 -67 -4q-64 0 -103.5 10.5t-61.5 40.5t-22 86v305h-67v131h67v147h148v-147h110v-131h-110v-232zM286 -141q0 -55 -38 -103.5t-102 -62.5l-24 49q59 20 70 61q-32 1 -52.5 23t-21.5 53q-2 34 22 58.5t59 24.5
q30 0 52.5 -17.5t30.5 -48.5q4 -15 4 -37z" />
    <glyph glyph-name="circumflex" unicode="&#x2c6;" horiz-adv-x="448" 
d="M281 751l137 -165h-134l-68 64l-64 -65h-134l136 166h127z" />
    <glyph glyph-name="caron" unicode="&#x2c7;" horiz-adv-x="449" 
d="M156 585l-137 166h134l69 -65l63 65h134l-136 -166h-127z" />
    <glyph glyph-name="breve" unicode="&#x2d8;" horiz-adv-x="445" 
d="M351 619q-53 -45 -129 -45q-77 0 -131 45.5t-66 119.5h108q9 -32 33.5 -47t55.5 -15q35 0 56.5 17t30.5 45h107q-12 -75 -65 -120z" />
    <glyph glyph-name="dotaccent" unicode="&#x2d9;" horiz-adv-x="219" 
d="M51.5 742q22.5 22 55.5 22t54.5 -22t21.5 -53q0 -32 -21.5 -52.5t-54.5 -20.5q-34 0 -56 20.5t-22 52.5q0 31 22.5 53z" />
    <glyph glyph-name="ring" unicode="&#x2da;" horiz-adv-x="289" 
d="M59.5 542.5q-34.5 33.5 -34.5 80.5q0 46 34.5 79t82.5 33q49 0 83.5 -33t34.5 -79q0 -47 -34.5 -80.5t-83.5 -33.5q-48 0 -82.5 33.5zM118.5 645q-9.5 -9 -9.5 -22q0 -14 9.5 -23t23.5 -9t24 9t10 23q0 13 -10 22t-24 9t-23.5 -9z" />
    <glyph glyph-name="ogonek" unicode="&#x2db;" horiz-adv-x="289" 
d="M124 -176.5q-25 8.5 -44 22.5q-24 19 -38.5 48.5t-14.5 60.5q0 46 27 83q22 28 65 46t75 20l6 -104q-25 0 -45.5 -12.5t-19.5 -34.5q3 -35 40 -35q26 0 56 15l45 -95q-7 -3 -28 -10.5t-41 -10.5q-10 -2 -32 -2q-26 0 -51 8.5z" />
    <glyph glyph-name="tilde" unicode="&#x2dc;" horiz-adv-x="492" 
d="M207.5 729q18.5 -9 39.5 -26q16 -13 28.5 -19.5t28.5 -6.5q28 0 40.5 17t21.5 40l90 -28q-13 -48 -45.5 -89t-83.5 -41q-33 0 -52.5 9t-41.5 27q-15 13 -27 19.5t-29 6.5q-27 0 -39 -17t-20 -38l-89 30q17 54 49 89.5t82 35.5q29 0 47.5 -9z" />
    <glyph glyph-name="hungarumlaut" unicode="&#x2dd;" horiz-adv-x="497" 
d="M270 686l-143 -108h-116l134 164zM461 686l-142 -108h-115l132 164z" />
    <glyph glyph-name="endash" unicode="&#x2013;" horiz-adv-x="514" 
d="M33 220v136h437v-136h-437z" />
    <glyph glyph-name="emdash" unicode="&#x2014;" horiz-adv-x="765" 
d="M34 220v136h682v-136h-682z" />
    <glyph glyph-name="quoteleft" unicode="&#x2018;" horiz-adv-x="256" 
d="M38 579q0 56 37.5 104t102.5 62l25 -49q-63 -21 -73 -61q34 -1 55.5 -24t21.5 -56t-23.5 -56t-57.5 -23q-31 0 -53.5 18t-30.5 48q-4 22 -4 37z" />
    <glyph glyph-name="quoteright" unicode="&#x2019;" horiz-adv-x="200" 
d="M183 641q0 -55 -38 -103.5t-102 -62.5l-24 49q59 20 70 61q-32 1 -52.5 23t-21.5 53q-2 34 22 58.5t59 24.5q30 0 52.5 -17.5t30.5 -48.5q4 -15 4 -37z" />
    <glyph glyph-name="quotesinglbase" unicode="&#x201a;" horiz-adv-x="218" 
d="M189 49q0 -56 -38 -104t-103 -62l-23 50q28 9 46 24.5t24 34.5q-33 1 -54 24t-21 55q0 33 23.5 57t57.5 24q30 0 53 -18t30 -48q5 -20 5 -37z" />
    <glyph glyph-name="quotedblleft" unicode="&#x201c;" horiz-adv-x="461" 
d="M40 579q0 56 37.5 104t102.5 62l24 -49q-63 -22 -72 -61q33 -1 54.5 -24t21.5 -56t-23.5 -56t-57.5 -23q-31 0 -53.5 18t-30.5 48q-3 17 -3 37zM232 579q0 55 38 103.5t102 62.5l24 -49q-58 -21 -69 -61q31 -1 52 -23t22 -53q2 -34 -22.5 -58.5t-59.5 -24.5q-30 0 -53 18
t-30 48q-4 15 -4 37z" />
    <glyph glyph-name="quotedblright" unicode="&#x201d;" horiz-adv-x="408" 
d="M190 640q0 -55 -38 -103.5t-102 -62.5l-23 49q56 20 69 61q-32 1 -53 24t-21 56t23.5 56t57.5 23q30 0 53 -17.5t30 -47.5q4 -16 4 -38zM384 640q0 -55 -38 -103.5t-103 -62.5l-24 49q60 19 71 61q-33 1 -54 23t-21 53q-2 34 22.5 58.5t58.5 24.5q31 0 53.5 -17.5
t30.5 -47.5q4 -16 4 -38z" />
    <glyph glyph-name="quotedblbase" unicode="&#x201e;" horiz-adv-x="408" 
d="M190 48q0 -56 -38 -104t-102 -62l-23 49q55 18 69 60q-32 1 -53 24t-21 56t23.5 56.5t57.5 23.5q30 0 53 -18t30 -48q4 -16 4 -37zM384 48q0 -56 -38 -104t-103 -62l-24 49q60 17 71 60q-33 1 -54 23t-21 53q-2 34 22.5 59t58.5 25q31 0 53.5 -18t30.5 -48q4 -16 4 -37z
" />
    <glyph glyph-name="dagger" unicode="&#x2020;" horiz-adv-x="502" 
d="M314 446v-446h-131v446h-166v126h166v187h131v-187h165v-126h-165z" />
    <glyph glyph-name="daggerdbl" unicode="&#x2021;" horiz-adv-x="509" 
d="M183 313v133h-166v126h166v187h131v-187h165v-126h-165v-133h165v-126h-165v-187h-131v187h-166v126h166z" />
    <glyph glyph-name="bullet" unicode="&#x2022;" horiz-adv-x="376" 
d="M99.5 389.5q36.5 34.5 86.5 34.5q51 0 87 -34.5t36 -83.5t-36 -83.5t-87 -34.5q-50 0 -86.5 34.5t-36.5 83.5t36.5 83.5z" />
    <glyph glyph-name="ellipsis" unicode="&#x2026;" horiz-adv-x="760" 
d="M188.5 15.5q-24.5 -23.5 -58.5 -23.5t-58 23.5t-24 56.5q0 32 24 56t58 24t58.5 -24t24.5 -56q0 -33 -24.5 -56.5zM429.5 15.5q-24.5 -23.5 -58.5 -23.5q-33 0 -57.5 23.5t-24.5 56.5q0 32 24.5 56t57.5 24q34 0 58.5 -24t24.5 -56q0 -33 -24.5 -56.5zM671.5 15.5
q-24.5 -23.5 -58.5 -23.5t-59 23.5t-25 56.5q0 32 25 56t59 24t58.5 -24t24.5 -56q0 -33 -24.5 -56.5z" />
    <glyph glyph-name="perthousand" unicode="&#x2030;" horiz-adv-x="1429" 
d="M129.5 347.5q-45.5 26.5 -71 74t-25.5 106.5q0 60 25.5 107.5t71 74t102.5 26.5q56 0 101.5 -27t71 -74t25.5 -107q0 -58 -26 -105.5t-71.5 -74.5t-100.5 -27q-57 0 -102.5 26.5zM642 717h136l-442 -717h-137zM187 586q-11 -30 -11 -58q0 -26 11 -57t45 -31q26 0 41 28.5
t15 59.5q0 32 -14 60t-42 28q-34 0 -45 -30zM653.5 12q-45.5 27 -71 74.5t-25.5 107.5q0 59 25.5 106.5t71 74t101.5 26.5q57 0 102 -26.5t70.5 -74t25.5 -106.5t-26 -107t-71 -75t-101 -27t-101.5 27zM1080 12q-45 27 -70 74.5t-25 107.5q0 59 25 106.5t70 74t102 26.5
t102.5 -26.5t71 -74t25.5 -106.5t-26 -107t-71.5 -75t-101.5 -27q-57 0 -102 27zM710 252q-11 -30 -11 -58q0 -27 11 -58t45 -31q27 0 41.5 28t14.5 61q0 31 -14 59.5t-42 28.5q-34 0 -45 -30zM1137 252q-11 -30 -11 -58q0 -27 11 -58t45 -31q27 0 42.5 28t15.5 61
q0 31 -15 59.5t-43 28.5q-34 0 -45 -30z" />
    <glyph glyph-name="guilsinglleft" unicode="&#x2039;" horiz-adv-x="421" 
d="M47 274l158 236h164l-162 -236l163 -234h-166z" />
    <glyph glyph-name="guilsinglright" unicode="&#x203a;" horiz-adv-x="421" 
d="M206 274l-103 150l-60 86h165l157 -236l-156 -234h-167z" />
    <glyph glyph-name="fraction" unicode="&#x2044;" horiz-adv-x="550" 
d="M442 732h113l-452 -732h-114z" />
    <glyph glyph-name="Euro" unicode="&#x20ac;" 
d="M657.5 99q-29.5 -39 -90 -76t-146.5 -37q-113 0 -202.5 61.5t-117.5 190.5h-82v114l72 2q0 20 1 32h-73v115h92q20 69 75 134q45 51 106.5 79.5t128.5 28.5q111 0 175 -55.5t90 -98.5l-139 -74q-5 12 -21 32t-43 38t-62 18q-45 0 -81.5 -27.5t-59.5 -74.5h200v-115h-230
q-1 -11 -1 -34h231v-114h-215q18 -50 56 -81t100 -31q41 0 68.5 20.5t41.5 44t14 28.5l149 -63q-7 -18 -36.5 -57z" />
    <glyph glyph-name="trademark" unicode="&#x2122;" horiz-adv-x="883" 
d="M801 356h-108v127l-88 -101l-87 101v-127h-107v408l194 -221l196 221v-408zM380 732v-100h-112v-276h-108v276h-111v100h331z" />
    <glyph glyph-name="notequal" unicode="&#x2260;" horiz-adv-x="584" 
d="M367 324q-23 -44 -30 -59h183v-136h-252l-49 -95h-157l49 95h-59v136h128l47 91h-175v136h245l48 95h157l-51 -95h69v-136h-136z" />
    <glyph glyph-name="lessequal" unicode="&#x2264;" horiz-adv-x="541" 
d="M483 681v-165l-243 -86l243 -80v-168l-437 187v115zM45 136h440v-136h-440v136z" />
    <glyph glyph-name="greaterequal" unicode="&#x2265;" horiz-adv-x="541" 
d="M484 369l-437 -187v168l242 80l-242 86v165l437 -197v-115zM45 0v136h440v-136h-440z" />
    <glyph glyph-name="NULL" horiz-adv-x="0" 
 />
    </font>
</defs>
</svg>
